<svg xmlns="http://www.w3.org/2000/svg" viewBox="0 -0.5 252 122" shape-rendering="crispEdges"><path stroke="#fff" d="M105 0h39m1 0h84M105 1h1m37 0h1m1 0h1m82 0h1M105 2h1m37 0h1m1 0h1m82 0h1M105 3h1m37 0h1m1 0h1m82 0h1M105 4h1m37 0h1m1 0h1m82 0h1M105 5h1m37 0h1m1 0h1m82 0h1M105 6h1m37 0h1m1 0h1m82 0h1M105 7h1m37 0h1m1 0h1m82 0h1M105 8h1m31 0h2m4 0h1m1 0h1m81 0h2M105 9h1m37 0h1m1 0h1m81 0h1m-123 1h1m37 0h3m81 0h1m-123 1h1m38 0h2m81 0h1m-123 1h1m38 0h2m81 0h1m-123 1h1m38 0h2m81 0h1m-123 1h1m38 0h2m81 0h1m-123 1h1m37 0h3m81 0h1m-123 1h1m37 0h1m1 0h1m81 0h1m-123 1h1m37 0h3m81 0h1m-123 1h1m121 0h1m-123 1h1m121 0h1m-123 1h1m121 0h1m-123 1h1m121 0h1m-123 1h1m121 0h1m-123 1h1m121 0h1m-123 1h1m121 0h1m-123 1h1m121 0h1m-123 1h1m121 0h1m-123 1h1m121 0h1M4 28h96m5 0h1m121 0h1M4 29h1m94 0h1m5 0h1m121 0h1M4 30h1m94 0h1m5 0h1m121 0h1M4 31h1m94 0h1m5 0h1m93 0h8m20 0h1M3 32h2m94 0h1m5 0h1m93 0h1m6 0h6m15 0h1M3 33h1m95 0h1m5 0h1m93 0h1m11 0h1m15 0h1M3 34h1m95 0h1m5 0h1m93 0h1m11 0h1m15 0h1M3 35h1m95 0h1m5 0h1m93 0h1m11 0h1m15 0h1M3 36h1m95 0h1m5 0h1m93 0h1m11 0h1m15 0h1M3 37h1m94 0h2m5 0h1m93 0h1m11 0h1m15 0h1M3 38h1m94 0h3m4 0h1m93 0h1m11 0h1m15 0h1M3 39h1m96 0h1m4 0h1m36 0h58m11 0h1m15 0h1M3 40h1m96 0h1m4 0h1m36 0h37m32 0h1m15 0h1M3 41h1m96 0h6m72 0h1m32 0h1m15 0h1M3 42h1m174 0h1m32 0h1m15 0h1M3 43h1m4 0h1m169 0h1m32 0h5m11 0h1M3 44h1m4 0h1m169 0h1m36 0h2m10 0h1M3 45h1m4 0h1m169 0h1m37 0h1m10 0h1M3 46h1m4 0h1m169 0h1m37 0h1m10 0h1M3 47h1m4 0h1m169 0h1m37 0h1m10 0h1M3 48h1m4 0h1m169 0h1m37 0h3m8 0h1M3 49h1m4 0h1m169 0h1m39 0h10M3 50h6m169 0h1M8 51h1m169 0h1m22 0h51M8 52h1m169 0h1m22 0h1m49 0h1M8 53h1m169 0h1m22 0h1m49 0h1M8 54h1m169 0h1m21 0h2m49 0h1M8 55h1m169 0h1m21 0h1m49 0h2M8 56h1m169 0h1m21 0h1m49 0h1M8 57h1m169 0h1m21 0h1m49 0h1M8 58h1m169 0h8m14 0h1m49 0h1M8 59h1m176 0h4m11 0h1m49 0h1M8 60h1m179 0h13m49 0h1M8 61h1m92 0h16m133 0h1M8 62h1m92 0h1m14 0h1m24 0h5m104 0h1M8 63h1m92 0h1m14 0h1m24 0h1m3 0h1m104 0h1M8 64h1m92 0h1m14 0h8m17 0h1m3 0h1m104 0h1M8 65h1m92 0h1m21 0h1m17 0h1m3 0h1m104 0h1M8 66h1m92 0h1m15 0h7m17 0h1m3 0h1m104 0h1M8 67h1m92 0h1m8 0h8m23 0h1m3 0h1m104 0h1M8 68h1m92 0h1m8 0h1m30 0h1m3 0h1m104 0h1M8 69h1m92 0h1m8 0h1m30 0h1m3 0h1m104 0h1M8 70h1m92 0h1m8 0h1m30 0h1m3 0h1m104 0h1M8 71h1m92 0h1m8 0h1m30 0h1m3 0h1m104 0h1M8 72h1m92 0h1m8 0h1m30 0h1m3 0h1m104 0h1M8 73h1m92 0h1m8 0h1m30 0h1m3 0h1m104 0h1M8 74h1m92 0h1m8 0h1m30 0h1m3 0h1m104 0h1M8 75h1m92 0h1m8 0h1m30 0h1m3 0h1m104 0h1M8 76h1m92 0h1m8 0h1m30 0h1m3 0h1m104 0h1M8 77h1m92 0h1m8 0h1m30 0h1m3 0h1m104 0h1M8 78h1m92 0h1m8 0h1m30 0h1m3 0h1m104 0h1M8 79h1m92 0h1m8 0h1m30 0h1m3 0h1m104 0h1M8 80h1m92 0h1m8 0h1m29 0h2m3 0h1m104 0h1M8 81h1m92 0h1m8 0h1m29 0h1m4 0h1m104 0h1M8 82h1m92 0h1m8 0h1m29 0h1m4 0h1m104 0h1M8 83h1m92 0h1m8 0h1m29 0h1m4 0h1m104 0h1M8 84h1m92 0h1m8 0h1m29 0h1m4 0h1m104 0h1M8 85h1m92 0h1m8 0h1m29 0h1m4 0h1m104 0h1M8 86h1m92 0h1m8 0h1m29 0h1m4 0h1m104 0h1M8 87h1m92 0h1m8 0h1m26 0h4m4 0h1m104 0h1M8 88h1m92 0h1m8 0h1m26 0h1m7 0h1m104 0h1M4 89h5m92 0h1m8 0h1m26 0h1m7 0h1m104 0h1M4 90h1m96 0h1m8 0h1m26 0h1m7 0h1m104 0h1M0 91h5m96 0h1m8 0h1m26 0h1m7 0h1m104 0h1M0 92h1m100 0h1m8 0h1m26 0h1m7 0h1m104 0h1M0 93h1m100 0h1m8 0h1m26 0h7m1 0h1m104 0h1M0 94h1m100 0h1m8 0h1m32 0h3m104 0h1M0 95h1m100 0h1m8 0h1m33 0h2m104 0h1M0 96h1m100 0h1m8 0h1m33 0h2m104 0h1M0 97h1m100 0h1m8 0h5m6 0h7m16 0h2m104 0h1M0 98h1m100 0h1m12 0h1m6 0h1m5 0h1m16 0h2m104 0h1M0 99h1m100 0h1m12 0h1m6 0h1m5 0h1m16 0h2m104 0h1M0 100h1m100 0h1m10 0h3m6 0h1m5 0h1m16 0h2m104 0h1M0 101h1m100 0h1m10 0h1m8 0h3m2 0h2m16 0h2m104 0h1M0 102h1m100 0h1m10 0h1m10 0h1m2 0h1m18 0h1m104 0h1M0 103h1m100 0h1m10 0h1m10 0h1m2 0h1m18 0h1m104 0h1M0 104h1m100 0h1m10 0h1m10 0h1m2 0h1m18 0h1m104 0h1M0 105h1m100 0h1m10 0h1m10 0h1m2 0h1m18 0h1m104 0h1M0 106h1m100 0h1m10 0h1m10 0h1m2 0h1m18 0h1m104 0h1M0 107h1m100 0h1m10 0h1m10 0h1m2 0h1m18 0h1m104 0h1M0 108h1m100 0h1m10 0h12m2 0h1m18 0h1m104 0h1M0 109h1m100 0h1m24 0h20m104 0h1M0 110h1m83 0h18m43 0h1m104 0h1M0 111h1m83 0h1m60 0h1m104 0h1M0 112h1m83 0h6m55 0h1m104 0h1M0 113h1m88 0h1m55 0h1m104 0h1M0 114h1m88 0h1m55 0h1m56 0h25m23 0h1M0 115h1m88 0h1m55 0h1m56 0h1m23 0h1m23 0h1M0 116h1m88 0h1m55 0h1m54 0h3m23 0h1m23 0h1M0 117h1m88 0h1m55 0h1m54 0h1m25 0h1m23 0h1M0 118h1m88 0h1m55 0h1m54 0h1m25 0h1m23 0h1M0 119h1m4 0h2m82 0h1m55 0h1m54 0h1m25 0h1m23 0h1M0 120h90m55 0h1m54 0h1m25 0h1m23 0h1m-106 1h56m25 0h25"/><path stroke="#333" d="M106 1h37m3 0h82M106 2h1m35 0h1m3 0h1m80 0h1M106 3h1m35 0h1m3 0h1m80 0h1M106 4h1m35 0h1m3 0h1m80 0h1M106 5h1m35 0h1m3 0h1m80 0h1M106 6h1m35 0h1m3 0h1m80 0h1M106 7h1m29 0h4m2 0h1m3 0h1m79 0h2M106 8h1m29 0h1m2 0h1m2 0h1m3 0h1m79 0h1M106 9h1m16 0h4m9 0h4m2 0h1m3 0h1m79 0h1m-121 1h1m17 0h3m15 0h1m3 0h1m79 0h1m-121 1h1m18 0h4m13 0h2m2 0h1m79 0h1m-121 1h1m19 0h7m9 0h2m2 0h1m79 0h1m-121 1h1m22 0h5m8 0h2m2 0h1m79 0h1m-121 1h1m24 0h6m5 0h2m2 0h1m79 0h1m-121 1h1m26 0h6m3 0h1m3 0h1m79 0h1m-121 1h1m28 0h8m3 0h1m79 0h1m-121 1h1m30 0h6m3 0h1m79 0h1m-121 1h1m34 0h6m79 0h1m-121 1h1m119 0h1m-121 1h1m119 0h1m-121 1h1m119 0h1m-121 1h1m119 0h1m-121 1h1m119 0h1m-121 1h1m119 0h1m-121 1h1m119 0h1m-121 1h1m119 0h1m-121 1h1m119 0h1m-121 1h1m119 0h1M5 29h94m7 0h1m119 0h1M5 30h1m92 0h1m7 0h1m91 0h10m18 0h1M5 31h1m92 0h1m7 0h1m91 0h1m8 0h6m13 0h1M5 32h1m92 0h1m7 0h1m91 0h1m13 0h1m13 0h1M4 33h2m92 0h1m7 0h1m91 0h1m13 0h1m13 0h1M4 34h2m92 0h1m7 0h1m91 0h1m13 0h1m13 0h1M4 35h1m93 0h1m7 0h1m91 0h1m13 0h1m13 0h1M4 36h1m92 0h2m7 0h1m91 0h1m13 0h1m13 0h1M4 37h1m92 0h1m8 0h1m91 0h1m13 0h1m13 0h1M4 38h1m92 0h1m8 0h1m34 0h58m13 0h1m13 0h1M4 39h1m92 0h3m6 0h1m34 0h1m70 0h1m13 0h1M4 40h1m94 0h1m6 0h1m34 0h1m70 0h1m13 0h1M4 41h1m94 0h1m6 0h1m33 0h38m34 0h1m13 0h1M4 42h1m2 0h3m89 0h8m70 0h1m34 0h5m9 0h1M4 43h1m2 0h1m1 0h1m167 0h1m38 0h2m8 0h1M4 44h1m2 0h1m1 0h1m167 0h1m39 0h1m8 0h1M4 45h1m2 0h1m1 0h1m167 0h1m39 0h1m8 0h1M4 46h1m2 0h1m1 0h1m167 0h1m39 0h1m8 0h1M4 47h1m2 0h1m1 0h1m167 0h1m39 0h3m6 0h1M4 48h1m2 0h1m1 0h1m167 0h1m41 0h8M4 49h4m1 0h1m167 0h1M9 50h1m167 0h1M9 51h1m167 0h1M9 52h1m167 0h1m24 0h49M9 53h1m167 0h1m24 0h2m46 0h1M9 54h1m167 0h1m24 0h2m45 0h2M9 55h1m167 0h1m23 0h3m45 0h1M9 56h1m167 0h1m23 0h3m45 0h1M9 57h1m167 0h1m23 0h1m47 0h1M9 58h1m167 0h1m23 0h1m47 0h1M9 59h1m167 0h8m16 0h1m47 0h1M9 60h1m90 0h18m59 0h2m5 0h4m13 0h1m47 0h1M9 61h1m90 0h1m16 0h1m22 0h7m40 0h15m47 0h1M9 62h1m90 0h1m16 0h1m22 0h1m5 0h1m102 0h1M9 63h1m90 0h1m16 0h8m15 0h1m5 0h1m102 0h1M9 64h1m90 0h1m23 0h1m15 0h1m5 0h1m102 0h1M9 65h1m90 0h1m23 0h1m15 0h1m5 0h1m102 0h1M9 66h1m90 0h1m23 0h1m15 0h1m5 0h1m102 0h1M9 67h1m90 0h1m17 0h7m15 0h1m5 0h1m102 0h1M9 68h1m90 0h1m10 0h8m21 0h1m5 0h1m102 0h1M9 69h1m90 0h1m10 0h1m28 0h1m5 0h1m102 0h1M9 70h1m90 0h1m10 0h1m28 0h1m5 0h1m102 0h1M9 71h1m90 0h1m10 0h1m28 0h1m5 0h1m102 0h1M9 72h1m90 0h1m10 0h1m28 0h1m5 0h1m102 0h1M9 73h1m90 0h1m10 0h1m28 0h1m5 0h1m102 0h1M9 74h1m90 0h1m10 0h1m28 0h1m5 0h1m102 0h1M9 75h1m90 0h1m10 0h1m28 0h1m5 0h1m102 0h1M9 76h1m90 0h1m10 0h1m28 0h1m5 0h1m102 0h1M9 77h1m90 0h1m10 0h1m28 0h1m5 0h1m102 0h1M9 78h1m90 0h1m10 0h1m28 0h1m5 0h1m102 0h1M9 79h1m90 0h1m10 0h1m27 0h2m5 0h1m102 0h1M9 80h1m90 0h1m10 0h1m27 0h1m6 0h1m102 0h1M9 81h1m90 0h1m10 0h1m27 0h1m6 0h1m102 0h1M9 82h1m90 0h1m10 0h1m27 0h1m6 0h1m102 0h1M9 83h1m90 0h1m10 0h1m27 0h1m6 0h1m102 0h1M9 84h1m90 0h1m10 0h1m27 0h1m6 0h1m102 0h1M9 85h1m90 0h1m10 0h1m27 0h1m6 0h1m102 0h1M9 86h1m90 0h1m10 0h1m24 0h4m6 0h1m102 0h1M9 87h1m90 0h1m10 0h1m24 0h1m9 0h1m102 0h1M9 88h1m90 0h1m10 0h1m24 0h1m9 0h1m102 0h1M9 89h1m90 0h1m10 0h1m24 0h1m9 0h1m102 0h1M5 90h5m90 0h1m10 0h1m24 0h1m9 0h1m102 0h1M5 91h2m93 0h1m10 0h1m24 0h1m9 0h1m102 0h1M1 92h6m93 0h1m10 0h1m24 0h1m9 0h1m102 0h1M1 93h1m98 0h1m10 0h1m24 0h1m9 0h1m102 0h1M1 94h1m98 0h1m10 0h1m24 0h7m3 0h1m102 0h1M1 95h1m98 0h1m10 0h1m30 0h2m2 0h1m102 0h1M1 96h1m98 0h1m10 0h5m4 0h9m14 0h1m2 0h1m102 0h1M1 97h1m98 0h1m14 0h1m4 0h1m7 0h1m14 0h1m2 0h1m102 0h1M1 98h1m98 0h1m14 0h1m4 0h1m7 0h1m14 0h1m2 0h1m102 0h1M1 99h1m98 0h1m14 0h1m4 0h1m7 0h1m14 0h1m2 0h1m102 0h1M1 100h1m98 0h1m14 0h1m4 0h1m7 0h1m14 0h1m2 0h1m102 0h1M1 101h1m98 0h1m12 0h3m4 0h1m7 0h1m14 0h1m2 0h1m102 0h1M1 102h1m98 0h1m12 0h1m6 0h3m4 0h2m14 0h2m1 0h1m102 0h1M1 103h1m98 0h1m12 0h1m8 0h1m4 0h1m16 0h1m1 0h1m102 0h1M1 104h1m98 0h1m12 0h1m8 0h1m4 0h1m16 0h1m1 0h1m102 0h1M1 105h1m98 0h1m12 0h1m8 0h1m4 0h1m16 0h1m1 0h1m102 0h1M1 106h1m98 0h1m12 0h1m8 0h1m4 0h1m16 0h1m1 0h1m102 0h1M1 107h1m98 0h1m12 0h10m4 0h1m16 0h1m1 0h1m102 0h1M1 108h1m98 0h1m26 0h18m1 0h1m102 0h1M1 109h1m81 0h18m45 0h1m102 0h1M1 110h1m81 0h1m62 0h1m102 0h1M1 111h1m81 0h1m62 0h1m102 0h1M1 112h1m81 0h1m62 0h1m102 0h1M1 113h1m81 0h6m57 0h1m54 0h27m21 0h1M1 114h1m86 0h1m57 0h1m54 0h1m25 0h1m21 0h1M1 115h1m86 0h1m57 0h1m52 0h3m25 0h1m21 0h1M1 116h1m86 0h1m57 0h1m52 0h1m27 0h1m21 0h1M1 117h1m86 0h1m57 0h1m52 0h1m27 0h1m21 0h1M1 118h1m2 0h4m80 0h1m57 0h1m52 0h1m27 0h1m21 0h1M1 119h4m2 0h82m57 0h1m52 0h1m27 0h1m21 0h1m-104 1h54m27 0h23"/><path stroke="#0076ff" d="M107 2h35m5 0h80M107 3h35m5 0h80M107 4h35m5 0h80M107 5h35m5 0h80M107 6h35m5 0h80M107 7h29m4 0h2m5 0h79M107 8h29m4 0h2m5 0h79M107 9h16m4 0h9m4 0h2m5 0h79m-119 1h17m3 0h15m5 0h79m-119 1h18m4 0h13m5 0h79m-119 1h19m7 0h9m5 0h79m-119 1h22m5 0h8m5 0h79m-119 1h24m6 0h5m5 0h79m-119 1h26m6 0h3m5 0h79m-119 1h28m12 0h79m-119 1h30m10 0h79m-119 1h34m6 0h79m-119 1h119m-119 1h119m-119 1h119m-119 1h119m-119 1h119m-119 1h119m-119 1h119m-119 1h119m-119 1h119m-119 1h119m-119 1h119M6 30h92m9 0h91m10 0h18M6 31h92m9 0h91m15 0h13M6 32h92m9 0h91m15 0h13M6 33h92m9 0h91m15 0h13M6 34h92m9 0h91m15 0h13M5 35h93m9 0h91m15 0h13M5 36h92m10 0h91m15 0h13M5 37h92m10 0h91m15 0h13M5 38h92m10 0h34m72 0h13M5 39h92m10 0h34m72 0h13M5 40h94m8 0h34m72 0h13M5 41h94m8 0h33m73 0h13M5 42h2m3 0h89m8 0h70m40 0h9M5 43h2m3 0h167m41 0h8M5 44h2m3 0h167m41 0h8M5 45h2m3 0h167m41 0h8M5 46h2m3 0h167m41 0h8M5 47h2m3 0h167m43 0h6M5 48h2m3 0h167M10 49h167M10 50h167M10 51h167M10 52h167M10 53h167m27 0h46M10 54h167m27 0h45M10 55h167m27 0h45M10 56h167m27 0h45M10 57h167m25 0h47M10 58h167m25 0h47M10 59h167m25 0h47M10 60h90m18 0h59m2 0h5m18 0h47M10 61h90m18 0h22m7 0h40m15 0h47M10 62h90m18 0h22m7 0h102M10 63h90m25 0h15m7 0h102M10 64h90m25 0h15m7 0h102M10 65h90m25 0h15m7 0h102M10 66h90m25 0h15m7 0h102M10 67h90m25 0h15m7 0h102M10 68h90m19 0h21m7 0h102M10 69h90m12 0h28m7 0h102M10 70h90m12 0h28m7 0h102M10 71h90m12 0h28m7 0h102M10 72h90m12 0h28m7 0h102M10 73h90m12 0h28m7 0h102M10 74h90m12 0h28m7 0h102M10 75h90m12 0h28m7 0h102M10 76h90m12 0h28m7 0h102M10 77h90m12 0h28m7 0h102M10 78h90m12 0h28m7 0h102M10 79h90m12 0h27m8 0h102M10 80h90m12 0h27m8 0h102M10 81h90m12 0h27m8 0h102M10 82h90m12 0h27m8 0h102M10 83h90m12 0h27m8 0h102M10 84h90m12 0h27m8 0h102M10 85h90m12 0h27m8 0h102M10 86h90m12 0h24m11 0h102M10 87h90m12 0h24m11 0h102M10 88h90m12 0h24m11 0h102M10 89h90m12 0h24m11 0h102M10 90h90m12 0h24m11 0h102M7 91h93m12 0h24m11 0h102M7 92h93m12 0h24m11 0h102M2 93h98m12 0h24m11 0h102M2 94h98m12 0h24m11 0h102M2 95h98m12 0h30m5 0h102M2 96h98m16 0h4m9 0h14m4 0h102M2 97h98m16 0h4m9 0h14m4 0h102M2 98h98m16 0h4m9 0h14m4 0h102M2 99h98m16 0h4m9 0h14m4 0h102M2 100h98m16 0h4m9 0h14m4 0h102M2 101h98m16 0h4m9 0h14m4 0h102M2 102h98m14 0h6m9 0h14m4 0h102M2 103h98m14 0h8m6 0h16m3 0h102M2 104h98m14 0h8m6 0h16m3 0h102M2 105h98m14 0h8m6 0h16m3 0h102M2 106h98m14 0h8m6 0h16m3 0h102M2 107h98m28 0h16m3 0h102M2 108h98m47 0h102M2 109h81m64 0h102M2 110h81m64 0h102M2 111h81m64 0h102M2 112h81m64 0h102M2 113h81m64 0h54m27 0h21M2 114h86m59 0h54m27 0h21M2 115h86m59 0h52m29 0h21M2 116h86m59 0h52m29 0h21M2 117h86m59 0h52m29 0h21M2 118h2m4 0h80m59 0h52m29 0h21m-102 1h52m29 0h21"/></svg>