<svg xmlns="http://www.w3.org/2000/svg" viewBox="0 -0.5 89 85" shape-rendering="crispEdges"><path stroke="#fff" d="M28 0h38M28 1h1m36 0h1M28 2h1m36 0h1M27 3h2m36 0h2M26 4h2m38 0h2M25 5h2m40 0h2M25 6h1m42 0h2M25 7h1m21 0h2m20 0h2M23 8h3m19 0h6m19 0h2M22 9h2m21 0h6m20 0h2m-52 1h2m24 0h4m21 0h1m-53 1h2m50 0h2m-55 1h2m52 0h2m-56 1h1m54 0h2m-57 1h1m55 0h2m-58 1h1m56 0h2m-59 1h1m57 0h2m-60 1h1m58 0h2M9 18h8m2 0h2m58 0h6M9 19h1m6 0h2m2 0h2m62 0h2M9 20h1m7 0h1m3 0h2m62 0h1M9 21h1m7 0h1m4 0h2m61 0h1M9 22h1m7 0h4m2 0h2m60 0h1M6 23h4m10 0h1m3 0h2m59 0h1M6 24h1m13 0h1m3 0h1m60 0h1M6 25h1m13 0h1m2 0h2m60 0h1M6 26h1m13 0h1m2 0h1m61 0h1M6 27h1m12 0h2m1 0h2m61 0h1M6 28h1m12 0h4m62 0h1M6 29h1m78 0h1M6 30h1m78 0h1M6 31h1m78 0h1M6 32h1m78 0h4M6 33h1m81 0h1M6 34h1m81 0h1M6 35h1m81 0h1M5 36h2m81 0h1M5 37h1m82 0h1M5 38h1m82 0h1M5 39h1m82 0h1M5 40h1m82 0h1M5 41h1m82 0h1M5 42h1m82 0h1M5 43h1m82 0h1M4 44h2m82 0h1M4 45h1m83 0h1M4 46h1m83 0h1M4 47h1m83 0h1M4 48h1m83 0h1M4 49h1m83 0h1M4 50h1m83 0h1M4 51h1m83 0h1M4 52h1m83 0h1M3 53h2m83 0h1M3 54h1m84 0h1M3 55h1m84 0h1M3 56h1m84 0h1M3 57h1m84 0h1M3 58h1m84 0h1M3 59h1m84 0h1M2 60h2m84 0h1M2 61h1m85 0h1M2 62h1m85 0h1M2 63h1m85 0h1M2 64h1m85 0h1M2 65h1m85 0h1M2 66h1m85 0h1M2 67h1m85 0h1M1 68h2m85 0h1M1 69h1m86 0h1M1 70h1m86 0h1M1 71h1m86 0h1M1 72h1m86 0h1M1 73h1m86 0h1M0 74h2m86 0h1M0 75h1m87 0h1M0 76h1m87 0h1M0 77h1m87 0h1M0 78h1m87 0h1M0 79h1m87 0h1M0 80h1m87 0h1M0 81h1m87 0h1M0 82h1m87 0h1M0 83h63m25 0h1m-27 1h27"/><path stroke="#333" d="M29 1h36M29 2h1m34 0h1M29 3h1m34 0h1M28 4h2m12 0h1m10 0h1m10 0h2M27 5h2m15 0h1m6 0h3m11 0h2M26 6h2m16 0h1m6 0h1m14 0h2M26 7h1m17 0h3m2 0h3m15 0h2M26 8h1m17 0h1m6 0h1m16 0h2M24 9h3m17 0h1m6 0h1m17 0h2m-48 1h2m19 0h3m4 0h1m18 0h2m-50 1h2m22 0h6m19 0h1m-51 1h2m48 0h2m-53 1h2m50 0h2m-54 1h1m52 0h2m-55 1h1m53 0h2m-56 1h1m54 0h2m-57 1h2m54 0h2m-57 1h2m54 0h2m-69 1h6m6 0h2m54 0h6m-74 1h1m4 0h2m6 0h2m58 0h2m-75 1h1m5 0h1m7 0h2m58 0h1m-75 1h1m5 0h1m8 0h3m56 0h1m-75 1h3m3 0h4m6 0h3m55 0h1M7 24h6m6 0h1m5 0h2m2 0h1m54 0h1M7 25h1m11 0h1m5 0h1m58 0h1M7 26h1m10 0h2m4 0h2m58 0h1M7 27h1m10 0h1m5 0h1m59 0h1M7 28h1m10 0h1m4 0h2m59 0h1M7 29h1m10 0h6m60 0h1M7 30h1m14 0h1m61 0h1M7 31h1m76 0h1M7 32h1m76 0h1M7 33h1m76 0h4M7 34h1m79 0h1M7 35h1m79 0h1M7 36h1m79 0h1M6 37h2m79 0h1M6 38h1m80 0h1M6 39h1m80 0h1M6 40h1m80 0h1M6 41h1m80 0h1M6 42h1m80 0h1M6 43h1m80 0h1M6 44h1m80 0h1M5 45h2m80 0h1M5 46h1m81 0h1M5 47h1m81 0h1M5 48h1m81 0h1M5 49h1m81 0h1M5 50h1m81 0h1M5 51h1m81 0h1M5 52h1m81 0h1M5 53h1m81 0h1M4 54h2m81 0h1M4 55h1m82 0h1M4 56h1m82 0h1M4 57h1m82 0h1M4 58h1m82 0h1M4 59h1m82 0h1M4 60h1m82 0h1M3 61h2m82 0h1M3 62h1m83 0h1M3 63h1m83 0h1M3 64h1m83 0h1M3 65h1m83 0h1M3 66h1m83 0h1M3 67h1m83 0h1M3 68h1m83 0h1M2 69h2m83 0h1M2 70h1m84 0h1M2 71h1m84 0h1M2 72h1m84 0h1M2 73h1m84 0h1M2 74h1m84 0h1M1 75h2m84 0h1M1 76h1m85 0h1M1 77h1m85 0h1M1 78h1m85 0h1M1 79h1m85 0h1M1 80h1m85 0h1M1 81h1m85 0h1M1 82h63m23 0h1m-25 1h25"/><path stroke="#19a1a1" d="M30 2h34M30 3h34M30 4h12m1 0h10m1 0h10M29 5h15m1 0h6m3 0h11M28 6h16m1 0h6m1 0h14M27 7h17m8 0h15M27 8h17m8 0h16M27 9h17m8 0h17m-44 1h19m8 0h18m-46 1h22m6 0h19m-48 1h48m-49 1h50m-51 1h52m-52 1h53m-53 1h54m-53 1h54m-53 1h54m-53 1h54m-67 1h4m10 0h58m-72 1h5m10 0h58m-73 1h5m12 0h56m-71 1h3m13 0h55m-71 1h6m8 0h2m1 0h54M8 25h11m7 0h58M8 26h10m8 0h58M8 27h10m7 0h59M8 28h10m7 0h59M8 29h10m6 0h60M8 30h14m1 0h61M8 31h76M8 32h76M8 33h76M8 34h79M8 35h79M8 36h79M8 37h79M7 38h80M7 39h80M7 40h80M7 41h80M7 42h80M7 43h80M7 44h80M7 45h80M6 46h81M6 47h81M6 48h81M6 49h81M6 50h81M6 51h81M6 52h81M6 53h81M6 54h81M5 55h82M5 56h82M5 57h82M5 58h82M5 59h82M5 60h82M5 61h82M4 62h83M4 63h83M4 64h83M4 65h83M4 66h83M4 67h83M4 68h83M4 69h83M3 70h84M3 71h84M3 72h84M3 73h84M3 74h84M3 75h84M2 76h85M2 77h85M2 78h85M2 79h85M2 80h85M2 81h85m-23 1h23"/></svg>