<svg xmlns="http://www.w3.org/2000/svg" viewBox="0 -0.5 91 87" shape-rendering="crispEdges"><path stroke="#fff" d="M37 0h20M37 1h1m18 0h2M20 2h18m19 0h2M19 3h2m9 0h1m27 0h2M19 4h1m39 0h3M19 5h1m41 0h2M19 6h1m42 0h2M19 7h1m43 0h2M19 8h1m44 0h3M15 9h5m46 0h2m-54 1h2m51 0h2m-55 1h1m53 0h2m-57 1h2m54 0h2m-59 1h2m56 0h3m-61 1h1m59 0h2m-62 1h1m60 0h4m-65 1h1m63 0h2m-66 1h1m64 0h2m-67 1h3m63 0h1M8 19h5m65 0h1M8 20h1m69 0h1M8 21h1m69 0h1M8 22h1m69 0h1M8 23h1m69 0h2M8 24h1m70 0h1M8 25h1m70 0h1M8 26h3m68 0h1m-70 1h1m68 0h1m-70 1h1m68 0h1m-70 1h1m68 0h5m-74 1h1m72 0h1m-74 1h1m72 0h1m-74 1h1m72 0h1m-74 1h1m72 0h1m-74 1h1m72 0h1m-74 1h1m72 0h2m-75 1h1m73 0h1m-75 1h1m73 0h3m-77 1h1m75 0h1M0 39h9m1 0h1m75 0h1M0 40h1m7 0h3m75 0h1M0 41h1m85 0h1M0 42h1m85 0h1M0 43h1m85 0h1M0 44h1m85 0h1M0 45h1m85 0h1M0 46h1m85 0h1M0 47h1m85 0h1M0 48h1m85 0h1M0 49h1m85 0h1M0 50h1m85 0h1M0 51h1m85 0h1M0 52h1m85 0h1M0 53h1m85 0h1M0 54h1m85 0h2M0 55h1m86 0h1M0 56h1m86 0h1M0 57h1m86 0h1M0 58h1m86 0h1M0 59h1m86 0h1M0 60h1m86 0h2M0 61h1m87 0h1M0 62h1m87 0h1M0 63h1m87 0h1M0 64h1m87 0h1M0 65h1m87 0h1M0 66h1m87 0h2M0 67h1m88 0h1M0 68h1m88 0h1M0 69h1m88 0h1M0 70h1m88 0h1M0 71h1m88 0h1M0 72h1m88 0h1M0 73h1m88 0h1M0 74h1m88 0h2M0 75h1m89 0h1M0 76h1m89 0h1M0 77h1m89 0h1M0 78h1m89 0h1M0 79h1m89 0h1M0 80h1m89 0h1M0 81h1m89 0h1M0 82h1m89 0h1M0 83h1m89 0h1M0 84h1m89 0h1M0 85h1m89 0h1M0 86h91"/><path stroke="#333" d="M38 1h18M38 2h1m16 0h2M21 3h9m1 0h8m17 0h2M20 4h2m7 0h3m3 0h2m20 0h2M20 5h1m15 0h1m1 0h1m19 0h3M20 6h1m39 0h2M20 7h1m8 0h2m7 0h1m22 0h2M20 8h1m9 0h3m4 0h2m23 0h2M20 9h1m10 0h4m2 0h2m24 0h3m-50 1h5m12 0h5m27 0h2m-52 1h2m18 0h2m29 0h2m-53 1h1m51 0h2m-55 1h2m52 0h2m-57 1h2m54 0h3m-59 1h1m16 0h2m39 0h2m-60 1h1m16 0h2m40 0h4m-63 1h3m59 0h2m-62 1h3m58 0h2m-65 1h7m57 0h1M9 20h5m5 0h2m56 0h1M9 21h1m10 0h3m54 0h1M9 22h1m12 0h3m52 0h1M9 23h1m14 0h2m51 0h1M9 24h1m14 0h2m51 0h2M9 25h3m12 0h2m52 0h1m-68 1h1m66 0h1m-68 1h1m66 0h1m-68 1h1m66 0h1m-68 1h1m66 0h1m-68 1h1m66 0h5m-72 1h1m70 0h1m-72 1h1m70 0h1m-72 1h1m70 0h1m-72 1h1m70 0h1m-72 1h1m68 0h3m-72 1h1m68 0h4m-73 1h1m71 0h1m-73 1h1m71 0h3m-75 1h1m73 0h1M1 40h7m3 0h1m73 0h1M1 41h1m5 0h5m73 0h1M1 42h1m83 0h1M1 43h1m83 0h1M1 44h1m83 0h1M1 45h1m83 0h1M1 46h1m83 0h1M1 47h1m83 0h1M1 48h1m83 0h1M1 49h1m83 0h1M1 50h1m83 0h1M1 51h1m83 0h1M1 52h1m83 0h1M1 53h1m83 0h1M1 54h1m81 0h3M1 55h1m81 0h4M1 56h1m84 0h1M1 57h1m84 0h1M1 58h1m84 0h1M1 59h1m84 0h1M1 60h1m84 0h1M1 61h1m84 0h2M1 62h1m85 0h1M1 63h1m85 0h1M1 64h1m85 0h1M1 65h1m85 0h1M1 66h1m85 0h1M1 67h1m85 0h2M1 68h1m86 0h1M1 69h1m86 0h1M1 70h1m86 0h1M1 71h1m86 0h1M1 72h1m86 0h1M1 73h1m86 0h1M1 74h1m86 0h1M1 75h1m86 0h2M1 76h1m87 0h1M1 77h1m87 0h1M1 78h1m87 0h1M1 79h1m87 0h1M1 80h1m87 0h1M1 81h1m87 0h1M1 82h1m87 0h1M1 83h1m87 0h1M1 84h1m87 0h1M1 85h89"/><path stroke="#19a1a1" d="M39 2h16M39 3h17M22 4h7m3 0h3m2 0h20M21 5h15m1 0h1m1 0h19M21 6h39M21 7h8m2 0h7m1 0h22M21 8h9m3 0h4m2 0h23M21 9h10m4 0h2m2 0h24m-42 1h12m5 0h27m-48 1h18m2 0h29m-50 1h51m-51 1h52m-53 1h54m-55 1h16m2 0h39m-57 1h16m2 0h40m-56 1h59m-57 1h58m-56 1h57m-63 1h5m2 0h56m-67 1h10m3 0h54m-67 1h12m3 0h52m-67 1h14m2 0h51m-67 1h14m2 0h51m-65 1h12m2 0h52m-66 1h66m-66 1h66m-66 1h66m-66 1h66m-66 1h66m-66 1h70m-70 1h70m-70 1h70m-70 1h70m-70 1h68m-68 1h68m-68 1h71m-71 1h71m-71 1h73m-73 1h73M2 41h5m5 0h73M2 42h83M2 43h83M2 44h83M2 45h83M2 46h83M2 47h83M2 48h83M2 49h83M2 50h83M2 51h83M2 52h83M2 53h83M2 54h81M2 55h81M2 56h84M2 57h84M2 58h84M2 59h84M2 60h84M2 61h84M2 62h85M2 63h85M2 64h85M2 65h85M2 66h85M2 67h85M2 68h86M2 69h86M2 70h86M2 71h86M2 72h86M2 73h86M2 74h86M2 75h86M2 76h87M2 77h87M2 78h87M2 79h87M2 80h87M2 81h87M2 82h87M2 83h87M2 84h87"/></svg>