<svg xmlns="http://www.w3.org/2000/svg" viewBox="0 -0.5 87 89" shape-rendering="crispEdges"><path stroke="#fff" d="M62 0h24M62 1h1m22 0h1M46 2h17m22 0h1M46 3h1m38 0h1M46 4h1m38 0h1M46 5h1m38 0h1M46 6h1m38 0h1M46 7h1m38 0h1M46 8h1m38 0h1M46 9h1m38 0h1m-40 1h1m38 0h1m-40 1h1m38 0h1m-40 1h1m38 0h1m-40 1h1m38 0h1m-40 1h1m38 0h1m-40 1h1m38 0h1m-40 1h1m38 0h1m-40 1h1m38 0h1m-40 1h1m38 0h1m-40 1h1m38 0h1m-40 1h1m38 0h1m-40 1h8m31 0h1m-33 1h1m31 0h1m-33 1h1m31 0h1m-33 1h1m31 0h1m-33 1h1m31 0h1m-33 1h6m26 0h1m-28 1h1m26 0h1m-28 1h1m26 0h1m-28 1h1m26 0h1m-28 1h1m26 0h1m-28 1h1m26 0h1m-28 1h1m26 0h1m-28 1h1m26 0h1m-28 1h1m26 0h1m-28 1h1m26 0h1m-28 1h1m26 0h1m-28 1h1m26 0h1m-28 1h1m26 0h1m-28 1h1m26 0h1m-28 1h1m26 0h1m-28 1h1m26 0h1m-69 1h42m26 0h1M0 43h11m6 0h1m67 0h1M0 44h1m9 0h8m67 0h1M0 45h1m15 0h2m67 0h1M0 46h1m84 0h1M0 47h1m84 0h1M0 48h1m84 0h1M0 49h1m84 0h1M0 50h1m84 0h1M0 51h1m84 0h1M0 52h1m84 0h1M0 53h1m84 0h1M0 54h1m84 0h1M0 55h1m84 0h1M0 56h1m84 0h1M0 57h1m84 0h1M0 58h1m84 0h1M0 59h1m84 0h1M0 60h1m84 0h1M0 61h1m84 0h1M0 62h1m84 0h1M0 63h1m84 0h1M0 64h1m84 0h1M0 65h1m84 0h1M0 66h1m84 0h1M0 67h1m84 0h1M0 68h1m84 0h1M0 69h1m84 0h1M0 70h1m84 0h1M0 71h1m84 0h1M0 72h1m84 0h1M0 73h1m84 0h1M0 74h1m84 0h1M0 75h1m23 0h40m21 0h2M0 76h1m26 0h1m33 0h1m24 0h1M0 77h1m26 0h1m33 0h1m24 0h1M0 78h1m26 0h1m33 0h1m24 0h1M0 79h1m26 0h1m33 0h1m24 0h1M0 80h1m26 0h1m33 0h1m24 0h1M0 81h1m26 0h1m33 0h1m24 0h1M0 82h1m26 0h1m33 0h1m24 0h1M0 83h1m26 0h1m33 0h1m24 0h1M0 84h1m26 0h1m33 0h1m24 0h1M0 85h1m26 0h1m33 0h1m24 0h1M0 86h1m26 0h1m33 0h1m24 0h1M0 87h1m26 0h1m33 0h1m24 0h1M0 88h28m33 0h26"/><path stroke="#333" d="M63 1h22M63 2h1m20 0h1M47 3h17m20 0h1M47 4h1m36 0h1M47 5h1m36 0h1M47 6h1m5 0h2m29 0h1M47 7h1m36 0h1M47 8h1m36 0h1M47 9h1m36 0h1m-38 1h1m36 0h1m-38 1h1m36 0h1m-38 1h1m36 0h1m-38 1h1m36 0h1m-38 1h1m36 0h1m-38 1h1m36 0h1m-38 1h1m36 0h1m-38 1h1m36 0h1m-38 1h1m5 0h2m29 0h1m-38 1h1m5 0h2m4 0h1m24 0h1m-38 1h8m4 0h1m24 0h1m-31 1h1m4 0h1m24 0h1m-31 1h1m4 0h1m24 0h1m-31 1h1m3 0h2m24 0h1m-31 1h1m3 0h2m24 0h1m-31 1h6m24 0h1m-26 1h1m24 0h1m-26 1h1m24 0h1m-26 1h1m24 0h1m-26 1h1m24 0h1m-26 1h1m24 0h1m-26 1h1m24 0h1m-26 1h1m24 0h1m-26 1h1m24 0h1m-26 1h1m24 0h1m-26 1h1m24 0h1m-26 1h1m24 0h1m-26 1h1m24 0h1m-26 1h1m24 0h1m-26 1h1m24 0h1m-26 1h1m24 0h1m-26 1h1m24 0h1m-26 1h1m24 0h1m-67 1h42m24 0h1M1 44h9m8 0h1m65 0h1M1 45h1m1 0h2m4 0h7m2 0h1m65 0h1M1 46h1m2 0h1m10 0h4m65 0h1M1 47h1m3 0h1m78 0h1M1 48h1m4 0h1m77 0h1M1 49h1m5 0h2m75 0h1M1 50h1m6 0h1m75 0h1M1 51h1m6 0h2m74 0h1M1 52h1m7 0h2m73 0h1M1 53h1m8 0h2m72 0h1M1 54h1m9 0h1m72 0h1M1 55h1m10 0h1m71 0h1M1 56h1m11 0h1m70 0h1M1 57h1m82 0h1M1 58h1m82 0h1M1 59h1m82 0h1M1 60h1m82 0h1M1 61h1m82 0h1M1 62h1m82 0h1M1 63h1m82 0h1M1 64h1m82 0h1M1 65h1m82 0h1M1 66h1m82 0h1M1 67h1m82 0h1M1 68h1m82 0h1M1 69h1m2 0h2m4 0h1m73 0h1M1 70h1m82 0h1M1 71h1m82 0h1M1 72h1m82 0h1M1 73h1m2 0h1m79 0h1M1 74h1m2 0h1m15 0h47m17 0h1M1 75h1m2 0h1m15 0h4m40 0h1m19 0h1M1 76h1m1 0h2m18 0h4m35 0h3m19 0h2M1 77h1m1 0h2m21 0h1m35 0h1m22 0h1M1 78h1m1 0h2m21 0h1m35 0h1m22 0h1M1 79h1m1 0h2m21 0h1m35 0h1m22 0h1M1 80h1m1 0h2m21 0h1m35 0h1m22 0h1M1 81h1m1 0h2m21 0h1m35 0h1m22 0h1M1 82h1m1 0h2m21 0h1m35 0h1m22 0h1M1 83h1m1 0h2m21 0h1m35 0h1m22 0h1M1 84h1m1 0h2m21 0h1m35 0h1m22 0h1M1 85h1m1 0h2m21 0h1m35 0h1m22 0h1M1 86h1m1 0h2m21 0h1m35 0h1m22 0h1M1 87h26m35 0h24"/><path stroke="#19a1a1" d="M64 2h20M64 3h20M48 4h36M48 5h36M48 6h5m2 0h29M48 7h36M48 8h36M48 9h36m-36 1h36m-36 1h36m-36 1h36m-36 1h36m-36 1h36m-36 1h36m-36 1h36m-36 1h36m-36 1h5m2 0h29m-36 1h5m2 0h4m1 0h24m-29 1h4m1 0h24m-29 1h4m1 0h24m-29 1h4m1 0h24m-29 1h3m2 0h24m-29 1h3m2 0h24m-24 1h24m-24 1h24m-24 1h24m-24 1h24m-24 1h24m-24 1h24m-24 1h24m-24 1h24m-24 1h24m-24 1h24m-24 1h24m-24 1h24m-24 1h24m-24 1h24m-24 1h24m-24 1h24m-24 1h24m-24 1h24m-24 1h24m-65 1h65M2 45h1m2 0h4m10 0h65M2 46h2m1 0h10m4 0h65M2 47h3m1 0h78M2 48h4m1 0h77M2 49h5m2 0h75M2 50h6m1 0h75M2 51h6m2 0h74M2 52h7m2 0h73M2 53h8m2 0h72M2 54h9m1 0h72M2 55h10m1 0h71M2 56h11m1 0h70M2 57h82M2 58h82M2 59h82M2 60h82M2 61h82M2 62h82M2 63h82M2 64h82M2 65h82M2 66h82M2 67h82M2 68h82M2 69h2m2 0h4m1 0h73M2 70h82M2 71h82M2 72h82M2 73h2m1 0h79M2 74h2m1 0h15m47 0h17M2 75h2m1 0h15m45 0h19M2 76h1m2 0h18m42 0h19M2 77h1m2 0h21m37 0h22M2 78h1m2 0h21m37 0h22M2 79h1m2 0h21m37 0h22M2 80h1m2 0h21m37 0h22M2 81h1m2 0h21m37 0h22M2 82h1m2 0h21m37 0h22M2 83h1m2 0h21m37 0h22M2 84h1m2 0h21m37 0h22M2 85h1m2 0h21m37 0h22M2 86h1m2 0h21m37 0h22"/></svg>