<svg xmlns="http://www.w3.org/2000/svg" viewBox="0 -0.5 46 58" shape-rendering="crispEdges"><path stroke="#fff" d="M21 0h3m-7 1h5m1 0h1m-7 1h1m1 0h2m2 0h2m-8 1h1m6 0h1m-8 1h3m1 0h1m2 0h2m-8 1h1m6 0h1M2 6h3m13 0h1m3 0h1m2 0h1M1 7h2m1 0h3m11 0h2m2 0h1m2 0h3M1 8h1m4 0h2m11 0h2m6 0h1M1 9h1m5 0h2m11 0h1m6 0h1M1 10h1m6 0h2m10 0h2m5 0h2M1 11h2m6 0h2m10 0h1m6 0h2M2 12h2m6 0h1m10 0h2m6 0h1M3 13h3m4 0h2m10 0h2m5 0h2M5 14h2m4 0h2m10 0h1m6 0h1M6 15h3m3 0h3m8 0h2m2 0h1m2 0h2M8 16h1m5 0h2m8 0h1m6 0h1M8 17h1m6 0h3m6 0h3m4 0h2M8 18h1m8 0h1m8 0h2m4 0h1M8 19h1m8 0h2m8 0h1m4 0h1M8 20h1m9 0h3m6 0h1m4 0h2M8 21h2m10 0h2m5 0h2m4 0h1M9 22h3m9 0h2m4 0h1m5 0h1m-23 1h2m9 0h3m2 0h2m4 0h2m-23 1h2m10 0h2m2 0h1m1 0h1m3 0h2m-23 1h4m8 0h5m5 0h1m-20 1h2m9 0h4m4 0h2m-20 1h2m9 0h4m4 0h1m-19 1h3m9 0h3m3 0h1m-17 1h1m9 0h3m3 0h3M3 30h5m12 0h2m9 0h3m4 0h1M3 31h1m3 0h3m11 0h2m8 0h3m4 0h2M0 32h4m5 0h1m12 0h2m15 0h1M0 33h1m8 0h6m8 0h4m12 0h7M0 34h1m13 0h7m5 0h2m12 0h1m1 0h1m2 0h1M0 35h1m19 0h9m11 0h1m1 0h1m2 0h1M0 36h1m39 0h1m1 0h1m2 0h1M0 37h1m41 0h1m2 0h1M0 38h1m41 0h1m2 0h1M0 39h1m41 0h1m2 0h1M0 40h1m41 0h1m2 0h1M0 41h1m41 0h1m2 0h1M0 42h1m41 0h1m2 0h1M0 43h1m41 0h1m2 0h1M0 44h1m1 0h7m8 0h2m23 0h1m2 0h1M0 45h1m8 0h13m20 0h1m2 0h1M0 46h1m16 0h5m20 0h1m2 0h1M0 47h1m41 0h1m2 0h1M0 48h1m1 0h1m39 0h1m2 0h1M0 49h25m17 0h1m2 0h1m-22 1h1m17 0h1m2 0h1m-22 1h10m8 0h1m2 0h1m-13 1h3m6 0h1m2 0h1m-11 1h1m6 0h1m2 0h1m-11 1h1m6 0h1m2 0h1m-11 1h6m1 0h1m2 0h1m-6 1h3m2 0h1m-4 1h4"/><path stroke="#7ac037" d="M22 1h1m-5 1h1m2 0h2m-5 1h6m-4 1h1m1 0h2m-5 1h6m-6 1h3m1 0h2M3 7h1m16 0h2m1 0h2M2 8h4m15 0h6M2 9h5m14 0h6M2 10h6m14 0h5M3 11h6m13 0h6M4 12h6m13 0h6M6 13h4m14 0h5M7 14h4m13 0h6M9 15h3m13 0h2m1 0h2M9 16h5m11 0h6M9 17h6m12 0h4M9 18h8m11 0h4M9 19h8m11 0h4M9 20h9m10 0h4m-22 1h10m9 0h4m-21 1h9m7 0h5m-20 1h9m7 0h4m-19 1h10m5 0h1m1 0h3m-17 1h8m5 0h5m-17 1h9m4 0h4m-16 1h9m4 0h4m-15 1h9m3 0h3m-15 1h9m3 0h3m-14 1h9m3 0h4M4 31h3m16 0h8m3 0h4M4 32h5m15 0h15M1 33h8m18 0h12M1 34h13m14 0h12m1 0h1m1 0h2M1 35h19m9 0h11m1 0h1m1 0h2M1 36h39m1 0h1m1 0h2M1 37h41m1 0h2M1 38h41m1 0h2M1 39h41m1 0h2M1 40h41m1 0h2M1 41h41m1 0h2M1 42h41m1 0h2M1 43h41m1 0h2M1 44h1m7 0h8m2 0h23m1 0h2M1 45h8m13 0h20m1 0h2M1 46h16m5 0h20m1 0h2M1 47h41m1 0h2M1 48h1m1 0h39m1 0h2m-20 1h17m1 0h2m-20 1h17m1 0h2m-11 1h8m1 0h2m-9 1h6m1 0h2m-9 1h6m1 0h2m-9 1h6m1 0h2m-4 1h1m1 0h2m-2 1h2"/></svg>