<svg xmlns="http://www.w3.org/2000/svg" viewBox="0 -0.5 34 24" shape-rendering="crispEdges"><path stroke="#fff" d="M2 0h11m2 0h19M2 1h1m9 0h1m2 0h1m17 0h1M2 2h1m9 0h4m17 0h1M1 3h2m30 0h1M0 4h2m27 0h5M0 5h1m28 0h1M0 6h1m28 0h1M0 7h1m28 0h1M0 8h1m28 0h1M0 9h1m28 0h1M0 10h1m28 0h1M0 11h1m27 0h2M0 12h1m27 0h1M0 13h1m27 0h1M0 14h1m27 0h1M0 15h1m27 0h1M0 16h1m27 0h1M0 17h1m27 0h1M0 18h2m26 0h1M1 19h2m25 0h1M2 20h3m23 0h1M4 21h1m23 0h1M4 22h1m23 0h1M4 23h25"/><path stroke="#333" d="M3 1h9m4 0h17M3 2h1m1 0h3m3 0h1m4 0h1m11 0h1m3 0h1M3 3h1m7 0h6m11 0h5M2 4h2m24 0h1M1 5h2m25 0h1M1 6h1m26 0h1M1 7h1m26 0h1M1 8h1m3 0h2m21 0h1M1 9h1m3 0h2m12 0h2m7 0h1M1 10h1m3 0h2m12 0h2m6 0h2M1 11h1m25 0h1M1 12h1m24 0h2M1 13h1m24 0h2M1 14h1m24 0h2M1 15h1m8 0h3m13 0h2M1 16h1m4 0h1m3 0h3m13 0h2M1 17h2m3 0h1m4 0h1m14 0h2M2 18h13m4 0h4m3 0h2M3 19h3m1 0h1m7 0h5m5 0h3M5 20h1m1 0h9m1 0h1m7 0h1m1 0h1M5 21h1m21 0h1M5 22h23"/><path stroke="#df5618" d="M4 2h1m3 0h3m6 0h11M4 3h7m6 0h11M4 4h24M3 5h25M2 6h26M2 7h26M2 8h3m2 0h21M2 9h3m2 0h12m2 0h7M2 10h3m2 0h12m2 0h6M2 11h25M2 12h24M2 13h24M2 14h24M2 15h8m3 0h13M2 16h4m1 0h3m3 0h13M3 17h3m1 0h4m1 0h14m-11 1h4m4 0h3M6 19h1m1 0h7m5 0h5M6 20h1m9 0h1m1 0h7m1 0h1M6 21h21"/><path stroke="#000" d="M29 2h3"/></svg>