<svg xmlns="http://www.w3.org/2000/svg" viewBox="0 -0.5 26 20" shape-rendering="crispEdges"><path stroke="#fff" d="M3 0h20M3 1h1m18 0h4M3 2h1m21 0h1M3 3h1m21 0h1M3 4h1m21 0h1M3 5h1m17 0h5M2 6h2m21 0h1M2 7h1m22 0h1M2 8h1m22 0h1M2 9h1m20 0h3M2 10h1m18 0h3M2 11h1m18 0h1M2 12h2m16 0h2M0 13h4m16 0h1M0 14h1m16 0h4M0 15h1m15 0h2M0 16h1m12 0h4M0 17h1m9 0h4M0 18h1m5 0h5M0 19h7"/><path stroke="#333" d="M4 1h18M4 2h1m16 0h4M4 3h1m19 0h1M4 4h1m15 0h5M4 5h1m6 0h1m8 0h1M4 6h1m15 0h5M3 7h2m19 0h1M3 8h1m18 0h3M3 9h1m16 0h3M3 10h1m16 0h1M3 11h4m12 0h2M4 12h1m14 0h1M4 13h1m11 0h4M1 14h4m10 0h2M1 15h1m10 0h4M1 16h1m7 0h4M1 17h1m3 0h5m-9 1h5"/><path stroke="#0076ff" d="M5 2h16M5 3h19M5 4h15M5 5h6m1 0h8M5 6h15M5 7h19M4 8h18M4 9h16M4 10h16M7 11h12M5 12h14M5 13h11M5 14h10M2 15h10M2 16h7m-7 1h3"/></svg>