<svg xmlns="http://www.w3.org/2000/svg" viewBox="0 -0.5 74 31" shape-rendering="crispEdges"><path stroke="#fff" d="M18 0h35M18 1h1m33 0h1M18 2h1m33 0h1M18 3h1m33 0h1M18 4h1m33 0h1M18 5h1m33 0h1M18 6h1m33 0h1m18 0h3M0 7h19m33 0h1m18 0h1m1 0h1M0 8h1m50 0h2m18 0h1m1 0h1M0 9h1m51 0h2m17 0h1m1 0h1M0 10h1m52 0h1m6 0h12m1 0h1M0 11h1m52 0h1m6 0h1m12 0h1M0 12h1m52 0h8m12 0h1M0 13h1m72 0h1M0 14h1m72 0h1M0 15h1m72 0h1M0 16h1m72 0h1M0 17h1m72 0h1M0 18h1m72 0h1M0 19h1m72 0h1M0 20h1m72 0h1M0 21h1m72 0h1M0 22h1m72 0h1M0 23h1m72 0h1M0 24h1m72 0h1M0 25h18m55 0h1m-57 1h1m55 0h1m-57 1h1m47 0h4m4 0h1m-57 1h1m47 0h1m2 0h1m4 0h1m-57 1h1m47 0h1m2 0h1m4 0h1m-57 1h49m2 0h6"/><path stroke="#333" d="M19 1h33M19 2h1m31 0h1M19 3h1m8 0h1m3 0h1m18 0h1M19 4h1m8 0h1m3 0h1m18 0h1M19 5h1m8 0h1m3 0h1m18 0h1M19 6h1m8 0h1m3 0h1m18 0h1M19 7h2m7 0h1m3 0h1m17 0h2m20 0h1M1 8h20m11 0h1m16 0h2m21 0h1M1 9h1m47 0h3m20 0h1M1 10h1m49 0h2m19 0h1M1 11h1m50 0h1m8 0h12M1 12h1m50 0h1m8 0h1M1 13h1m50 0h10M1 14h1m-1 1h1m66 0h5M1 16h1m-1 1h1m-1 1h1m-1 1h1m66 0h5M1 20h1m-1 1h1m-1 1h1m-1 1h1m66 0h5M1 24h21m8 0h1m-13 1h1m11 0h1m-13 1h1m10 0h2m33 0h6m-48 1h8m34 0h1m4 0h1m-52 1h1m45 0h1m4 0h1m-52 1h47m4 0h4"/><path stroke="#df5618" d="M20 2h31M20 3h8m1 0h3m1 0h18M20 4h8m1 0h3m1 0h18M20 5h8m1 0h3m1 0h18M20 6h8m1 0h3m1 0h18M21 7h7m1 0h3m1 0h17M21 8h11m1 0h16M2 9h47M2 10h49M2 11h50M2 12h50m10 0h5M2 13h50m10 0h5M2 14h65M2 15h65M2 16h65M2 17h65M2 18h65M2 19h65M2 20h65M2 21h65M2 22h65M2 23h65m-45 1h8m1 0h36m-48 1h11m1 0h36m-48 1h10m2 0h33m-46 1h4m8 0h34m-45 1h45"/><path stroke="#19a1a1" d="M67 12h6m-6 1h6m-6 1h6m-6 1h1m-1 1h6m-6 1h6m-6 1h6m-6 1h1m-1 1h6m-6 1h6m-6 1h6m-6 1h1m-1 1h6m-6 1h6m-3 1h3m-3 1h3m-3 1h3"/></svg>