<svg xmlns="http://www.w3.org/2000/svg" viewBox="0 -0.5 46 52" shape-rendering="crispEdges"><path stroke="#fff" d="M3 0h7M3 1h1m5 0h1M3 2h1m5 0h1m17 0h7M3 3h1m5 0h2m9 0h8m5 0h1M3 4h1m6 0h1m9 0h1m12 0h1M3 5h1m6 0h1m9 0h1m12 0h1M3 6h1m6 0h1m9 0h1m12 0h1M3 7h2m5 0h1m9 0h1m12 0h1M4 8h1m4 0h2m9 0h1m12 0h3M4 9h1m4 0h8m3 0h1m14 0h1M2 10h3m11 0h1m3 0h1m14 0h1M2 11h1m13 0h1m3 0h2m13 0h1M2 12h1m13 0h1m4 0h3m11 0h1M2 13h1m13 0h2m2 0h3m9 0h4M2 14h1m14 0h1m2 0h1m11 0h13M2 15h1m14 0h1m2 0h1m23 0h1M2 16h1m14 0h1m2 0h1m23 0h1M0 17h3m14 0h4m23 0h1M0 18h1m43 0h1M0 19h1m43 0h1M0 20h1m43 0h1M0 21h1m43 0h1M0 22h1m43 0h1M0 23h1m43 0h1M0 24h1m43 0h1M0 25h1m43 0h1M0 26h1m43 0h1M0 27h1m42 0h2M0 28h1m43 0h1M0 29h1m43 0h1M0 30h1m43 0h1M0 31h1m43 0h1M0 32h1m43 0h1M0 33h1m41 0h3M0 34h1m36 0h6M0 35h1m36 0h1M0 36h1m34 0h3M0 37h1m34 0h1M0 38h1m34 0h10M0 39h1m43 0h1M0 40h1m43 0h1M0 41h1m43 0h2M0 42h1m44 0h1M0 43h1m44 0h1M0 44h1m26 0h1m17 0h1M0 45h1m26 0h4m14 0h1M0 46h1m26 0h1m2 0h1m14 0h1M0 47h1m25 0h2m1 0h2m14 0h1M0 48h1m25 0h1m2 0h1m15 0h1M0 49h1m18 0h8m2 0h1m15 0h1M0 50h1m18 0h1m9 0h1m15 0h1M0 51h20m9 0h17"/><path stroke="#333" d="M4 1h5M4 2h1m3 0h1M4 3h1m3 0h1m19 0h5M4 4h1m3 0h2m11 0h8m3 0h1M4 5h1m4 0h1m11 0h1m10 0h1M4 6h2m3 0h1m11 0h1m10 0h1M5 7h1m2 0h2m11 0h1m10 0h1M5 8h1m2 0h1m12 0h1m10 0h1M5 9h1m2 0h1m12 0h1m10 0h3M5 10h1m2 0h8m5 0h2m11 0h1M3 11h3m9 0h1m6 0h3m9 0h1M3 12h1m11 0h1m8 0h1m6 0h4M3 13h1m11 0h1m7 0h2m6 0h1M3 14h1m11 0h2m4 0h3m7 0h1M3 15h1m12 0h1m4 0h1m9 0h13M3 16h1m12 0h1m4 0h1m10 0h1m1 0h1m8 0h1M3 17h1m12 0h1m4 0h2m20 0h1M1 18h3m12 0h7m20 0h1M1 19h1m14 0h2m2 0h2m21 0h1M1 20h1m7 0h2m9 0h2m21 0h1M1 21h1m7 0h2m16 0h2m14 0h1M1 22h1m25 0h2m14 0h1M1 23h1m19 0h1m2 0h2m17 0h1M1 24h1m41 0h1M1 25h1m6 0h1m16 0h3m8 0h1m6 0h1M1 26h1m6 0h1m1 0h25m1 0h1m5 0h2M1 27h1m6 0h1m27 0h1m5 0h1M1 28h1m6 0h1m27 0h1m5 0h2M1 29h1m41 0h1M1 30h1m41 0h1M1 31h1m41 0h1M1 32h1m39 0h3M1 33h1m34 0h6M1 34h1m34 0h1M1 35h1m32 0h3M1 36h1m32 0h1M1 37h1m32 0h1M1 38h1m32 0h1M1 39h1m32 0h10M1 40h1m35 0h2m4 0h1M1 41h1m41 0h1M1 42h1m41 0h2M1 43h1m24 0h3m15 0h1M1 44h1m24 0h1m1 0h4m12 0h1M1 45h1m24 0h1m4 0h1m12 0h1M1 46h1m23 0h2m4 0h1m12 0h1M1 47h1m23 0h1m5 0h1m12 0h1M1 48h1m16 0h8m4 0h2m12 0h1M1 49h1m16 0h1m11 0h1m13 0h1M1 50h18m11 0h15"/><path stroke="#7ac037" d="M5 2h3M5 3h3M5 4h3m21 0h3M5 5h4m13 0h10M6 6h3m13 0h10M6 7h2m14 0h10M6 8h2m14 0h10M6 9h2m14 0h10M6 10h2m15 0h11M6 11h9m10 0h9M4 12h11m10 0h6M4 13h11m10 0h6M4 14h11m9 0h7M4 15h12m6 0h9M4 16h12m6 0h10m1 0h1m1 0h8M4 17h12m7 0h20M4 18h12m7 0h20M2 19h14m2 0h2m2 0h21M2 20h7m2 0h9m2 0h21M2 21h7m2 0h16m2 0h14M2 22h25m2 0h14M2 23h19m1 0h2m2 0h17M2 24h41M2 25h6m1 0h16m3 0h8m1 0h6M2 26h6m1 0h1m25 0h1m1 0h5M2 27h6m1 0h27m1 0h5M2 28h6m1 0h27m1 0h5M2 29h41M2 30h41M2 31h41M2 32h39M2 33h34M2 34h34M2 35h32M2 36h32M2 37h32M2 38h32M2 39h32M2 40h35m2 0h4M2 41h41M2 42h41M2 43h24m3 0h15M2 44h24m6 0h12M2 45h24m6 0h12M2 46h23m7 0h12M2 47h23m7 0h12M2 48h16m14 0h12M2 49h16m13 0h13"/></svg>