<svg xmlns="http://www.w3.org/2000/svg" viewBox="0 -0.5 23 45" shape-rendering="crispEdges"><path stroke="#fff" d="M18 0h4m-4 1h1m2 0h2M5 2h4m9 0h1m3 0h1M0 3h6m2 0h11m3 0h1M0 4h1m21 0h1M0 5h1m21 0h1M0 6h1m21 0h1M0 7h1m21 0h1M0 8h1m21 0h1M0 9h1m21 0h1M0 10h1m21 0h1M0 11h1m21 0h1M0 12h1m21 0h1M0 13h1m21 0h1M0 14h1m21 0h1M0 15h1m21 0h1M0 16h1m21 0h1M0 17h1m21 0h1M0 18h1m21 0h1M0 19h1m21 0h1M0 20h1m21 0h1M0 21h1m21 0h1M0 22h1m21 0h1M0 23h1m21 0h1M0 24h1m21 0h1M0 25h1m21 0h1M0 26h1m21 0h1M0 27h1m21 0h1M0 28h1m21 0h1M0 29h1m21 0h1M0 30h1m21 0h1M0 31h1m21 0h1M0 32h1m21 0h1M0 33h1m21 0h1M0 34h1m21 0h1M0 35h1m21 0h1M0 36h1m21 0h1M0 37h1m1 0h1m19 0h1M0 38h3m19 0h1M2 39h1m19 0h1M2 40h1m19 0h1M2 41h1m19 0h1M2 42h1m17 0h1m1 0h1M2 43h1m19 0h1M2 44h21"/><path stroke="#333" d="M19 1h2m-2 1h3M6 3h2m11 0h1m1 0h1M1 4h19m1 0h1M1 5h1m19 0h1M1 6h1m19 0h1M1 7h1m19 0h1M1 8h1m19 0h1M1 9h1m19 0h1M1 10h1m17 0h1m1 0h1M1 11h1m19 0h1M1 12h1m19 0h1M1 13h1m19 0h1M1 14h1m7 0h10m2 0h1M1 15h1m19 0h1M1 16h1m19 0h1M1 17h1m19 0h1M1 18h1m19 0h1M1 19h1m19 0h1M1 20h1m19 0h1M1 21h1m19 0h1M1 22h1m19 0h1M1 23h1m19 0h1M1 24h1m19 0h1M1 25h1m19 0h1M1 26h1m19 0h1M1 27h1m19 0h1M1 28h1m19 0h1M1 29h1m19 0h1M1 30h1m19 0h1M1 31h1m19 0h1M1 32h1m19 0h1M1 33h1m19 0h1M1 34h1m19 0h1M1 35h1m1 0h1m17 0h1M1 36h3m17 0h1M1 37h1m1 0h1m17 0h1M3 38h1m17 0h1M3 39h1m16 0h2M3 40h1m16 0h2M3 41h1m15 0h3M3 42h1m15 0h1m1 0h1M3 43h19"/><path stroke="#ebeef3" d="M20 3h1m-1 1h1M2 5h9m5 0h5M2 6h10m4 0h5M2 7h10m4 0h5M2 8h11m3 0h5M2 9h11m4 0h4M2 10h12m3 0h2m1 0h1M2 11h12m3 0h4M2 12h19M2 13h19M2 14h7m10 0h2M2 15h19M2 16h19M2 17h19M2 18h19M2 19h19M2 20h19M2 21h19M2 22h19M2 23h19M2 24h19M2 25h19M2 26h19M2 27h19M2 28h19M2 29h19M2 30h19M2 31h19M2 32h19M2 33h19M2 34h19M2 35h1m1 0h17M4 36h17M4 37h17M4 38h17M4 39h16M4 40h16M4 41h15M4 42h15"/><path stroke="#19a1a1" d="M11 5h5m-4 1h4m-4 1h4m-3 1h3m-3 1h4m-3 1h3m-3 1h3"/></svg>