<svg xmlns="http://www.w3.org/2000/svg" viewBox="0 -0.5 90 74" shape-rendering="crispEdges"><path stroke="#fff" d="M0 0h90M0 1h1m88 0h1M0 2h1m88 0h1M0 3h1m88 0h1M0 4h1m88 0h1M0 5h1m88 0h1M0 6h1m88 0h1M0 7h1m88 0h1M0 8h1m88 0h1M0 9h1m88 0h1M0 10h1m88 0h1M0 11h1m88 0h1M0 12h1m88 0h1M0 13h1m88 0h1M0 14h1m88 0h1M0 15h1m88 0h1M0 16h1m88 0h1M0 17h1m88 0h1M0 18h1m88 0h1M0 19h1m88 0h1M0 20h1m88 0h1M0 21h1m88 0h1M0 22h1m88 0h1M0 23h1m88 0h1M0 24h1m88 0h1M0 25h1m88 0h1M0 26h1m88 0h1M0 27h1m88 0h1M0 28h1m88 0h1M0 29h1m88 0h1M0 30h1m88 0h1M0 31h1m88 0h1M0 32h1m88 0h1M0 33h1m88 0h1M0 34h1m88 0h1M0 35h1m88 0h1M0 36h1m88 0h1M0 37h1m87 0h2M0 38h1m87 0h1M0 39h1m87 0h1M0 40h1m87 0h1M0 41h1m87 0h1M0 42h1m87 0h1M0 43h1m87 0h1M0 44h1m87 0h1M0 45h1m87 0h1M0 46h1m87 0h1M0 47h1m87 0h1M0 48h1m87 0h1M0 49h1m87 0h1M0 50h1m87 0h1M0 51h1m87 0h1M0 52h1m87 0h1M0 53h1m87 0h1M0 54h1m87 0h1M0 55h1m87 0h1M0 56h1m87 0h1M0 57h1m87 0h1M0 58h1m87 0h1M0 59h1m87 0h1M0 60h1m87 0h1M0 61h1m87 0h1M0 62h5m83 0h1M4 63h1m83 0h1M3 64h2m83 0h1M3 65h1m84 0h1M3 66h1m84 0h1M3 67h1m84 0h1M3 68h1m84 0h1M3 69h1m84 0h1M3 70h1m84 0h1M3 71h1m84 0h1M3 72h1m84 0h1M3 73h86"/><path stroke="#333" d="M1 1h88M1 2h1m1 0h61m1 0h2m6 0h1m6 0h1m7 0h1M1 3h1m41 0h21m1 0h3m5 0h1m6 0h1m7 0h1M1 4h1m63 0h3m5 0h1m6 0h1m7 0h1M1 5h1m63 0h3m5 0h1m6 0h1m7 0h1M1 6h1m63 0h3m5 0h1m6 0h1m7 0h1M1 7h1m63 0h3m5 0h1m6 0h1m7 0h1M1 8h1m63 0h3m5 0h1m6 0h1m7 0h1M1 9h1m63 0h3m20 0h1M1 10h1m63 0h3m20 0h1M1 11h1m63 0h3m20 0h1M1 12h1m63 0h3m20 0h1M1 13h1m63 0h1m22 0h1M1 14h1m63 0h1m22 0h1M1 15h1m63 0h1m22 0h1M1 16h1m63 0h1m22 0h1M1 17h1m63 0h1m22 0h1M1 18h1m61 0h3m22 0h1M1 19h1m61 0h3m22 0h1M1 20h1m86 0h1M1 21h1m86 0h1M1 22h1m86 0h1M1 23h1m86 0h1M1 24h1m86 0h1M1 25h1m86 0h1M1 26h1m61 0h2m23 0h1M1 27h1m61 0h2m23 0h1M1 28h1m61 0h2m23 0h1M1 29h1m86 0h1M1 30h1m18 0h3m17 0h3m45 0h1M1 31h1m18 0h3m17 0h3m45 0h1M1 32h1m18 0h3m17 0h3m45 0h1M1 33h1m18 0h3m17 0h3m45 0h1M1 34h1m86 0h1M1 35h1m86 0h1M1 36h1m85 0h2M1 37h1m85 0h1M1 38h1m85 0h1M1 39h1m85 0h1M1 40h1m85 0h1M1 41h1m85 0h1M1 42h1m85 0h1M1 43h1m85 0h1M1 44h1m85 0h1M1 45h1m85 0h1M1 46h1m85 0h1M1 47h1m85 0h1M1 48h1m85 0h1M1 49h1m85 0h1M1 50h1m85 0h1M1 51h1m85 0h1M1 52h1m85 0h1M1 53h1m85 0h1M1 54h1m61 0h3m21 0h1M1 55h1m61 0h3m21 0h1M1 56h1m61 0h3m21 0h1M1 57h1m61 0h3m21 0h1M1 58h1m13 0h51m21 0h1M1 59h1m13 0h51m21 0h1M1 60h1m58 0h6m21 0h1M1 61h5m81 0h1M5 62h1m81 0h1M5 63h1m81 0h1M5 64h1m81 0h1M4 65h2m81 0h1M4 66h1m82 0h1M4 67h1m82 0h1M4 68h1m82 0h1M4 69h1m82 0h1M4 70h1m82 0h1M4 71h1m82 0h1M4 72h84"/><path stroke="#7ac037" d="M2 2h1m61 0h1m2 0h6m1 0h6m1 0h7M2 3h41m21 0h1m3 0h5m1 0h6m1 0h7M2 4h63m3 0h5m1 0h6m1 0h7M2 5h63m3 0h5m1 0h6m1 0h7M2 6h63m3 0h5m1 0h6m1 0h7M2 7h63m3 0h5m1 0h6m1 0h7M2 8h63m3 0h5m1 0h6m1 0h7M2 9h63m3 0h20M2 10h63m3 0h20M2 11h63m3 0h20M2 12h63m3 0h20M2 13h63m1 0h22M2 14h63m1 0h22M2 15h63m1 0h22M2 16h63m1 0h22M2 17h63m1 0h22M2 18h61m3 0h22M2 19h61m3 0h22M2 20h86M2 21h86M2 22h86M2 23h86M2 24h86M2 25h86M2 26h61m2 0h23M2 27h61m2 0h23M2 28h61m2 0h23M2 29h86M2 30h18m3 0h17m3 0h45M2 31h18m3 0h17m3 0h45M2 32h18m3 0h17m3 0h45M2 33h18m3 0h17m3 0h45M2 34h86M2 35h86M2 36h85M2 37h85M2 38h85M2 39h85M2 40h85M2 41h85M2 42h85M2 43h85M2 44h85M2 45h85M2 46h85M2 47h85M2 48h85M2 49h85M2 50h85M2 51h85M2 52h85M2 53h85M2 54h61m3 0h21M2 55h61m3 0h21M2 56h61m3 0h21M2 57h61m3 0h21M2 58h13m51 0h21M2 59h13m51 0h21M2 60h58m6 0h21M6 61h81M6 62h81M6 63h81M6 64h81M6 65h81M5 66h82M5 67h82M5 68h82M5 69h82M5 70h82M5 71h82"/></svg>