<svg xmlns="http://www.w3.org/2000/svg" viewBox="0 -0.5 50 44" shape-rendering="crispEdges"><path stroke="#fff" d="M8 0h40M8 1h1m38 0h1M2 2h7m38 0h1M2 3h1m44 0h1M2 4h1m44 0h1M2 5h1m44 0h1M2 6h1m43 0h2M2 7h1m43 0h1M2 8h1m43 0h1M2 9h1m43 0h1M2 10h1m43 0h1M2 11h1m43 0h1M2 12h1m43 0h1M0 13h3m43 0h1M0 14h1m45 0h1M0 15h1m45 0h4M0 16h1m48 0h1M0 17h1m48 0h1M0 18h1m48 0h1M0 19h1m48 0h1M0 20h1m48 0h1M0 21h1m47 0h2M0 22h3m44 0h2M2 23h1m43 0h2M2 24h1m40 0h4M2 25h1m40 0h1M2 26h2m39 0h1M2 27h2m39 0h1M2 28h1m40 0h1M2 29h1m40 0h6M2 30h1m45 0h1M2 31h1m45 0h1M2 32h1m45 0h1M2 33h1m45 0h1M2 34h1m45 0h1M2 35h2m44 0h1M3 36h1m44 0h1M3 37h2m38 0h6M4 38h1m38 0h1M4 39h8m31 0h1m-33 1h1m31 0h1m-33 1h1m31 0h1m-33 1h1m31 0h1m-33 1h33"/><path stroke="#333" d="M9 1h38M9 2h1m36 0h1M3 3h7m36 0h1M3 4h1m42 0h1M3 5h1m41 0h2M3 6h1m41 0h1M3 7h1m41 0h1M3 8h1m41 0h1M3 9h1m41 0h1M3 10h1m41 0h1M3 11h1m41 0h1M3 12h1m41 0h1M3 13h1m41 0h1M1 14h3m2 0h5m34 0h1M1 15h3m2 0h5m34 0h1M1 16h1m1 0h1m41 0h4M1 17h1m1 0h1m44 0h1M1 18h1m1 0h1m44 0h1M1 19h1m1 0h1m44 0h1M1 20h1m1 0h1m43 0h2M1 21h3m42 0h2M3 22h1m41 0h2M3 23h1m38 0h4M3 24h1m7 0h1m30 0h1M3 25h10m28 0h2M4 26h1m36 0h2M4 27h1m37 0h1M3 28h2m7 0h1m29 0h1M3 29h1m38 0h1M3 30h1m38 0h6M3 31h1m43 0h1M3 32h1m43 0h1M3 33h1m43 0h1M3 34h2m42 0h1M4 35h2m4 0h2m35 0h1M4 36h2m4 0h2m30 0h6M5 37h1m4 0h2m30 0h1M5 38h8m29 0h1m-31 1h1m29 0h1m-31 1h4m26 0h1m-31 1h4m26 0h1m-31 1h31"/><path stroke="#7ac037" d="M10 2h36M10 3h36M4 4h42M4 5h41M4 6h41M4 7h41M4 8h41M4 9h41M4 10h41M4 11h41M4 12h41M4 13h41M4 14h2m5 0h34M4 15h2m5 0h34M2 16h1m1 0h41M2 17h1m1 0h44M2 18h1m1 0h44M2 19h1m1 0h44M2 20h1m1 0h43M4 21h42M4 22h41M4 23h38M4 24h7m1 0h30m-29 1h28M5 26h36M5 27h37M5 28h7m1 0h29M4 29h38M4 30h38M4 31h43M4 32h43M4 33h43M5 34h42M6 35h4m2 0h35M6 36h4m2 0h30M6 37h4m2 0h30m-29 1h29m-29 1h29m-26 1h26m-26 1h26"/></svg>