<svg xmlns="http://www.w3.org/2000/svg" viewBox="0 -0.5 22 20" shape-rendering="crispEdges"><path stroke="#fff" d="M4 0h9M3 1h2m7 0h1M0 2h4m8 0h2M0 3h1m12 0h9M0 4h1m20 0h1M0 5h1m20 0h1M0 6h1m20 0h1M0 7h1m20 0h1M0 8h1m20 0h1M0 9h1m20 0h1M0 10h1m20 0h1M0 11h1m20 0h1M0 12h1m20 0h1M0 13h1m20 0h1M0 14h1m20 0h1M0 15h1m20 0h1M0 16h1m20 0h1M0 17h1m20 0h1M0 18h1m15 0h6M0 19h17"/><path stroke="#333" d="M5 1h7M4 2h2m5 0h1M1 3h4m6 0h2M1 4h1m10 0h9M1 5h1m18 0h1M1 6h1m18 0h1M1 7h1m18 0h1M1 8h1m18 0h1M1 9h1m8 0h2m8 0h1M1 10h1m8 0h2m8 0h1M1 11h1m18 0h1M1 12h1m12 0h2m4 0h1M1 13h1m12 0h2m4 0h1M1 14h1m18 0h1M1 15h1m4 0h6m8 0h1M1 16h1m18 0h1M1 17h1m13 0h6M1 18h15"/><path stroke="#df5618" d="M6 2h5M5 3h6M2 4h10M2 5h18M2 6h18M2 7h18M2 8h18M2 9h8m2 0h8M2 10h8m2 0h8M2 11h18M2 12h12m2 0h4M2 13h12m2 0h4M2 14h18M2 15h4m6 0h8M2 16h18M2 17h13"/></svg>