<svg xmlns="http://www.w3.org/2000/svg" viewBox="0 -0.5 12 17" shape-rendering="crispEdges"><path stroke="#fff" d="M0 0h11M0 1h1m9 0h1M0 2h1m9 0h1M0 3h1m9 0h1M0 4h1m9 0h2M0 5h1m10 0h1M0 6h1m10 0h1M0 7h1m10 0h1M0 8h1m10 0h1M0 9h1m10 0h1M0 10h1m10 0h1M0 11h1m9 0h2M0 12h1m9 0h1M0 13h1m9 0h1M0 14h1m9 0h1M0 15h1m9 0h1M0 16h11"/><path stroke="#333" d="M1 1h9M1 2h1m7 0h1M1 3h1m1 0h1m2 0h1m2 0h1M1 4h1m7 0h1M1 5h1m7 0h2M1 6h1m8 0h1M1 7h1m8 0h1M1 8h1m7 0h2M1 9h1m6 0h3M1 10h1m6 0h3M1 11h1m1 0h2m3 0h2m-9 1h1m1 0h2m3 0h2m-9 1h1m6 0h2m-9 1h1m3 0h5m-9 1h9"/><path stroke="#df5618" d="M2 2h7M2 3h1m1 0h2m1 0h2M2 4h7M2 5h7M2 6h8M2 7h8M2 8h7M2 9h6m-6 1h6m-6 1h1m2 0h3m-6 1h1m2 0h3m-6 1h6m-6 1h3"/></svg>