<svg xmlns="http://www.w3.org/2000/svg" viewBox="0 -0.5 50 31" shape-rendering="crispEdges"><path stroke="#fff" d="M6 0h32M6 1h1m30 0h1M6 2h1m30 0h2M2 3h5m31 0h2M1 4h2m36 0h2M1 5h1m38 0h2M1 6h1m39 0h2M1 7h2m39 0h4M2 8h2m41 0h1M2 9h1m42 0h1M2 10h1m42 0h1m1 0h3M2 11h1m42 0h3m1 0h1M2 12h1m42 0h2m1 0h2M2 13h1m42 0h1m1 0h2M2 14h1m43 0h2M2 15h1m42 0h2M2 16h1m42 0h1M2 17h1m42 0h1M2 18h1m42 0h1M2 19h1m42 0h1M2 20h1m42 0h1M2 21h1m42 0h1M2 22h1m42 0h1M2 23h1m42 0h1M2 24h1m42 0h1M2 25h1m42 0h1M0 26h3m42 0h3M0 27h1m46 0h1M0 28h1m5 0h36m5 0h1M0 29h1m5 0h1m34 0h1m5 0h1M0 30h7m34 0h7"/><path stroke="#333" d="M7 1h30M7 2h1m28 0h1M7 3h1m12 0h1m16 0h1M3 4h5m30 0h1M2 5h1m36 0h1M2 6h18m20 0h1M3 7h1m37 0h1m0 1h3M3 9h1m40 0h1M3 10h1m40 0h1M3 11h1m40 0h1m3 0h1M3 12h1m40 0h1m2 0h1M3 13h1m40 0h1m1 0h1M3 14h1m40 0h2M3 15h1m40 0h1M3 16h1m40 0h1M3 17h1m40 0h1M3 18h1m40 0h1M3 19h1m40 0h1M3 20h1m40 0h1M3 21h1m40 0h1M3 22h1m40 0h1M3 23h1m40 0h1M3 24h1m40 0h1M3 25h1m40 0h1M3 26h1m40 0h1M1 27h3m1 0h38m1 0h3M1 28h1m3 0h1m36 0h1m3 0h1M1 29h5m36 0h5"/><path stroke="#df5618" d="M8 2h28M8 3h12m1 0h16M8 4h30M3 5h36M20 6h20M4 7h37M4 8h38M4 9h40M4 10h40M4 11h40M4 12h40M4 13h40M4 14h40M4 15h40M4 16h40M4 17h40M4 18h40M4 19h40M4 20h40M4 21h40M4 22h40M4 23h40M4 24h40M4 25h40M4 26h40M4 27h1m38 0h1M2 28h3m38 0h3"/></svg>