<svg xmlns="http://www.w3.org/2000/svg" viewBox="0 -0.5 39 28" shape-rendering="crispEdges"><path stroke="#fff" d="M3 0h19M3 1h1m17 0h1M3 2h1m17 0h1M0 3h4m17 0h1M0 4h1m20 0h6M0 5h1m25 0h5M0 6h1m29 0h5M0 7h1m33 0h5M0 8h1m37 0h1M0 9h1m37 0h1M0 10h1m37 0h1M0 11h1m37 0h1M0 12h1m37 0h1M0 13h1m37 0h1M0 14h1m37 0h1M0 15h1m37 0h1M0 16h1m35 0h3M0 17h1m26 0h10M0 18h1m26 0h1M0 19h1m26 0h1M0 20h1m26 0h1M0 21h1m24 0h3M0 22h1m24 0h1M0 23h1m24 0h1M0 24h1m24 0h1M0 25h8m16 0h2M7 26h1m16 0h1M7 27h18"/><path stroke="#333" d="M4 1h17M4 2h1m15 0h1M4 3h1m15 0h1M1 4h4m4 0h1m10 0h1M1 5h1m7 0h1m10 0h6M1 6h1m7 0h1m2 0h1m12 0h5M1 7h1m7 0h1m2 0h1m16 0h5M1 8h1m7 0h1m2 0h1m20 0h5M1 9h1m7 0h1m2 0h1m24 0h1M1 10h1m35 0h1M1 11h1m35 0h1M1 12h1m35 0h1M1 13h1m35 0h1M1 14h1m35 0h1M1 15h1m33 0h3M1 16h1m24 0h10M1 17h1m24 0h1M1 18h1m24 0h1M1 19h1m24 0h1M1 20h1m22 0h3M1 21h1m22 0h1M1 22h1m22 0h1M1 23h1m5 0h2m15 0h1M1 24h8m14 0h2M8 25h1m14 0h1M8 26h16"/><path stroke="#df5618" d="M5 2h15M5 3h15M5 4h4m1 0h10M2 5h7m1 0h10M2 6h7m1 0h2m1 0h12M2 7h7m1 0h2m1 0h16M2 8h7m1 0h2m1 0h20M2 9h7m1 0h2m1 0h24M2 10h35M2 11h35M2 12h35M2 13h35M2 14h35M2 15h33M2 16h24M2 17h24M2 18h24M2 19h24M2 20h22M2 21h22M2 22h22M2 23h5m2 0h15M9 24h14M9 25h14"/></svg>