<svg xmlns="http://www.w3.org/2000/svg" viewBox="0 -0.5 119 84" shape-rendering="crispEdges"><path stroke="#fff" d="M28 0h88M28 1h1m86 0h1M28 2h1m86 0h1M28 3h1m86 0h1M28 4h1m86 0h1M28 5h1m86 0h1M28 6h1m86 0h1M28 7h1m86 0h1M0 8h29m86 0h1M0 9h1m114 0h1M0 10h1m114 0h1M0 11h1m114 0h1M0 12h1m114 0h1M0 13h1m114 0h1M0 14h1m114 0h1M0 15h1m114 0h1M0 16h1m114 0h1M0 17h1m114 0h1M0 18h1m114 0h1M0 19h1m114 0h1M0 20h1m114 0h1M0 21h1m114 0h1M0 22h1m114 0h1M0 23h1m114 0h1M0 24h1m114 0h1M0 25h1m114 0h1M0 26h1m114 0h1M0 27h1m114 0h4M0 28h1m117 0h1M0 29h1m117 0h1M0 30h1m117 0h1M0 31h1m117 0h1M0 32h1m117 0h1M0 33h1m117 0h1M0 34h1m117 0h1M0 35h1m117 0h1M0 36h1m117 0h1M0 37h1m117 0h1M0 38h1m117 0h1M0 39h1m117 0h1M0 40h1m117 0h1M0 41h1m117 0h1M0 42h1m117 0h1M0 43h1m117 0h1M0 44h1m117 0h1M0 45h1m117 0h1M0 46h1m117 0h1M0 47h1m117 0h1M0 48h1m117 0h1M0 49h1m117 0h1M0 50h1m117 0h1M0 51h1m117 0h1M0 52h1m45 0h3m69 0h1M0 53h1m45 0h1m1 0h1m69 0h1M0 54h1m45 0h1m1 0h1m62 0h8M0 55h1m45 0h1m1 0h1m53 0h10M0 56h1m45 0h1m1 0h1m53 0h1M0 57h1m45 0h1m1 0h1m43 0h11M0 58h1m45 0h1m1 0h1m43 0h1M0 59h1m45 0h1m1 0h1m43 0h1M0 60h1m45 0h1m1 0h1m43 0h1M0 61h1m45 0h1m1 0h1m43 0h1M0 62h1m45 0h1m1 0h45M0 63h1m45 0h1M0 64h1m45 0h1M0 65h1m45 0h1M0 66h1m45 0h1M0 67h1m45 0h1M0 68h1m45 0h1M0 69h1m45 0h1M0 70h1m45 0h1M0 71h1m45 0h1M0 72h1m45 0h1M0 73h1m45 0h1M0 74h1m45 0h1M0 75h1m45 0h1M0 76h1m45 0h1M0 77h1m45 0h1M0 78h1m45 0h1M0 79h1m45 0h1M0 80h1m45 0h1M0 81h1m45 0h1M0 82h1m45 0h1M0 83h47"/><path stroke="#333" d="M29 1h86M29 2h1m84 0h1M29 3h1m84 0h1M29 4h1m84 0h1M29 5h1m84 0h1M29 6h1m84 0h1M29 7h1m84 0h1M29 8h1m84 0h1M1 9h31m82 0h1M1 10h1m112 0h1M1 11h1m112 0h1M1 12h1m13 0h1m98 0h1M1 13h1m13 0h1m98 0h1M1 14h1m13 0h1m98 0h1M1 15h1m13 0h1m36 0h3m59 0h1M1 16h1m13 0h1m36 0h3m59 0h1M1 17h1m13 0h1m36 0h3m59 0h1M1 18h1m112 0h1M1 19h1m112 0h1M1 20h1m112 0h1M1 21h1m112 0h1M1 22h1m112 0h1M1 23h1m112 0h1M1 24h1m112 0h1M1 25h1m112 0h1M1 26h1m112 0h1M1 27h1m112 0h1M1 28h1m112 0h4M1 29h1m115 0h1M1 30h1m115 0h1M1 31h1m115 0h1M1 32h1m115 0h1M1 33h1m115 0h1M1 34h1m115 0h1M1 35h1m115 0h1M1 36h1m115 0h1M1 37h1m115 0h1M1 38h1m115 0h1M1 39h1m115 0h1M1 40h1m115 0h1M1 41h1m115 0h1M1 42h1m115 0h1M1 43h1m115 0h1M1 44h1m115 0h1M1 45h1m115 0h1M1 46h1m115 0h1M1 47h1m115 0h1M1 48h1m115 0h1M1 49h1m115 0h1M1 50h1m115 0h1M1 51h1m43 0h5m67 0h1M1 52h1m43 0h1m3 0h1m67 0h1M1 53h1m43 0h1m3 0h1m60 0h8M1 54h1m43 0h1m3 0h1m51 0h10M1 55h1m43 0h1m3 0h1m51 0h1M1 56h1m43 0h1m3 0h1m41 0h11M1 57h1m4 0h1m38 0h1m3 0h1m41 0h1M1 58h1m4 0h1m38 0h1m3 0h1m41 0h1M1 59h1m4 0h1m38 0h1m3 0h1m41 0h1M1 60h1m43 0h1m3 0h1m41 0h1M1 61h1m43 0h1m3 0h43M1 62h1m43 0h1M1 63h1m43 0h1M1 64h1m43 0h1M1 65h1m43 0h1M1 66h1m43 0h1M1 67h1m43 0h1M1 68h1m43 0h1M1 69h1m43 0h1M1 70h1m43 0h1M1 71h1m43 0h1M1 72h1m43 0h1M1 73h1m43 0h1M1 74h1m43 0h1M1 75h1m43 0h1M1 76h1m43 0h1M1 77h1m43 0h1M1 78h1m43 0h1M1 79h1m43 0h1M1 80h1m43 0h1M1 81h1m43 0h1M1 82h45"/><path stroke="#df5618" d="M30 2h84M30 3h84M30 4h84M30 5h84M30 6h84M30 7h84M30 8h84M32 9h82M2 10h112M2 11h112M2 12h13m1 0h98M2 13h13m1 0h98M2 14h13m1 0h98M2 15h13m1 0h36m3 0h59M2 16h13m1 0h36m3 0h59M2 17h13m1 0h36m3 0h59M2 18h112M2 19h112M2 20h112M2 21h112M2 22h112M2 23h112M2 24h112M2 25h112M2 26h112M2 27h112M2 28h112M2 29h115M2 30h115M2 31h115M2 32h115M2 33h115M2 34h115M2 35h115M2 36h115M2 37h115M2 38h115M2 39h115M2 40h115M2 41h115M2 42h115M2 43h115M2 44h115M2 45h115M2 46h115M2 47h115M2 48h115M2 49h115M2 50h115M2 51h43m5 0h67M2 52h43m5 0h67M2 53h43m5 0h60M2 54h43m5 0h51M2 55h43m5 0h51M2 56h43m5 0h41M2 57h4m1 0h38m5 0h41M2 58h4m1 0h38m5 0h41M2 59h4m1 0h38m5 0h41M2 60h43m5 0h41M2 61h43M2 62h43M2 63h43M2 64h43M2 65h43M2 66h43M2 67h43M2 68h43M2 69h43M2 70h43M2 71h43M2 72h43M2 73h43M2 74h43M2 75h43M2 76h43M2 77h43M2 78h43M2 79h43M2 80h43M2 81h43"/></svg>