<svg xmlns="http://www.w3.org/2000/svg" viewBox="0 -0.5 171 72" shape-rendering="crispEdges"><path stroke="#fff" d="M5 0h7M5 1h1m5 0h24M5 2h1m28 0h1m50 0h53M5 3h1m28 0h1m50 0h1m51 0h1M5 4h1m28 0h7m44 0h1m51 0h1M5 5h1m34 0h1m44 0h1m51 0h1M5 6h1m34 0h1m44 0h1m51 0h1M5 7h1m34 0h1m44 0h1m51 0h1M5 8h1m34 0h1m44 0h1m51 0h1M5 9h1m34 0h1m44 0h1m51 0h1M5 10h1m34 0h1m44 0h1m51 0h1M5 11h1m34 0h1m44 0h1m51 0h1M5 12h1m34 0h1m44 0h1m51 0h1M5 13h1m34 0h1m44 0h1m51 0h1M5 14h1m34 0h2m43 0h3m48 0h2M5 15h1m35 0h1m45 0h1m48 0h1M5 16h1m35 0h1m45 0h1m48 0h1M5 17h1m35 0h1m45 0h1m48 0h1M5 18h1m35 0h1m45 0h1m48 0h29M5 19h1m35 0h32m14 0h1m76 0h1M5 20h1m66 0h1m14 0h1m76 0h1M5 21h1m66 0h16m76 0h1M5 22h1m158 0h7M5 23h1m164 0h1M5 24h1m164 0h1M5 25h1m164 0h1M5 26h1m164 0h1M5 27h1m164 0h1M5 28h1m164 0h1M5 29h1m164 0h1M0 30h6m164 0h1M0 31h1m169 0h1M0 32h1m169 0h1M0 33h1m169 0h1M0 34h1m169 0h1M0 35h1m169 0h1M0 36h1m169 0h1M0 37h1m169 0h1M0 38h1m169 0h1M0 39h1m169 0h1M0 40h1m169 0h1M0 41h1m169 0h1M0 42h1m169 0h1M0 43h1m169 0h1M0 44h1m169 0h1M0 45h1m169 0h1M0 46h1m169 0h1M0 47h1m169 0h1M0 48h1m169 0h1M0 49h1m169 0h1M0 50h1m169 0h1M0 51h1m169 0h1M0 52h1m169 0h1M0 53h1m169 0h1M0 54h1m169 0h1M0 55h1m169 0h1M0 56h1m169 0h1M0 57h1m169 0h1M0 58h1m169 0h1M0 59h1m169 0h1M0 60h1m155 0h15M0 61h1m154 0h2M0 62h1m154 0h6M0 63h1m159 0h5M0 64h1m163 0h1M0 65h1m163 0h1M0 66h1m163 0h1M0 67h1m163 0h1M0 68h1m163 0h1M0 69h1m163 0h1M0 70h1m163 0h1M0 71h165"/><path stroke="#333" d="M6 1h5M6 2h1m3 0h24M6 3h1m26 0h1m52 0h51M6 4h1m26 0h1m52 0h1m49 0h1M6 5h1m26 0h7m46 0h1m49 0h1M6 6h1m32 0h1m46 0h1m49 0h1M6 7h1m32 0h1m46 0h1m49 0h1M6 8h1m32 0h1m46 0h1m49 0h1M6 9h1m32 0h1m46 0h1m49 0h1M6 10h1m32 0h1m46 0h1m49 0h1M6 11h1m32 0h1m46 0h1m49 0h1M6 12h1m32 0h1m46 0h1m49 0h1M6 13h1m32 0h1m46 0h7m42 0h2M6 14h1m32 0h1m48 0h1m46 0h1M6 15h1m32 0h2m47 0h1m46 0h1M6 16h1m33 0h1m47 0h1m46 0h1M6 17h1m33 0h1m47 0h1m46 0h1M6 18h1m33 0h1m47 0h1m46 0h1M6 19h1m33 0h1m47 0h1m46 0h29M6 20h1m33 0h32m16 0h1m30 0h8m36 0h1M6 21h1m64 0h1m16 0h1m30 0h8m36 0h1M6 22h1m64 0h18m30 0h8m36 0h1M6 23h1m112 0h8m36 0h7M6 24h1m162 0h1M6 25h1m162 0h1M6 26h1m162 0h1M6 27h1m162 0h1M6 28h1m138 0h3m3 0h3m15 0h1M6 29h1m138 0h3m3 0h3m15 0h1M6 30h1m138 0h3m3 0h3m15 0h1M1 31h6m162 0h1M1 32h1m167 0h1M1 33h1m167 0h1M1 34h1m167 0h1M1 35h1m167 0h1M1 36h1m167 0h1M1 37h1m167 0h1M1 38h1m167 0h1M1 39h1m167 0h1M1 40h1m167 0h1M1 41h1m167 0h1M1 42h1m167 0h1M1 43h1m167 0h1M1 44h1m167 0h1M1 45h1m167 0h1M1 46h1m167 0h1M1 47h1m167 0h1M1 48h1m167 0h1M1 49h1m167 0h1M1 50h1m167 0h1M1 51h1m167 0h1M1 52h1m167 0h1M1 53h1m167 0h1M1 54h1m146 0h2m19 0h1M1 55h1m146 0h2m19 0h1M1 56h1m146 0h2m19 0h1M1 57h1m167 0h1M1 58h1m167 0h1M1 59h1m142 0h26M1 60h1m148 0h6M1 61h1m148 0h5M1 62h1m152 0h1M1 63h1m152 0h6M1 64h1m157 0h5M1 65h1m161 0h1M1 66h1m161 0h1M1 67h1m161 0h1M1 68h1m2 0h3m59 0h3m94 0h1M1 69h1m2 0h3m59 0h3m94 0h1M1 70h163"/><path stroke="#df5618" d="M7 2h3M7 3h26M7 4h26m54 0h49M7 5h26m54 0h49M7 6h32m48 0h49M7 7h32m48 0h49M7 8h32m48 0h49M7 9h32m48 0h49M7 10h32m48 0h49M7 11h32m48 0h49M7 12h32m48 0h49M7 13h32m54 0h42M7 14h32m50 0h46M7 15h32m50 0h46M7 16h33m49 0h46M7 17h33m49 0h46M7 18h33m49 0h46M7 19h33m49 0h46M7 20h33m49 0h30m8 0h36M7 21h64m18 0h30m8 0h36M7 22h64m18 0h30m8 0h36M7 23h112m8 0h36M7 24h162M7 25h162M7 26h162M7 27h162M7 28h138m3 0h3m3 0h15M7 29h138m3 0h3m3 0h15M7 30h138m3 0h3m3 0h15M7 31h162M2 32h167M2 33h167M2 34h167M2 35h167M2 36h167M2 37h167M2 38h167M2 39h167M2 40h167M2 41h167M2 42h167M2 43h167M2 44h167M2 45h167M2 46h167M2 47h167M2 48h167M2 49h167M2 50h167M2 51h167M2 52h167M2 53h167M2 54h146m2 0h19M2 55h146m2 0h19M2 56h146m2 0h19M2 57h167M2 58h167M2 59h142M2 60h148M2 61h148M2 62h152M2 63h152M2 64h157M2 65h161M2 66h161M2 67h161M2 68h2m3 0h59m3 0h94M2 69h2m3 0h59m3 0h94"/></svg>