<svg xmlns="http://www.w3.org/2000/svg" viewBox="0 -0.5 119 53" shape-rendering="crispEdges"><path stroke="#fff" d="M0 0h118M0 1h1m116 0h1M0 2h1m116 0h1M0 3h1m116 0h1M0 4h1m116 0h1M0 5h1m116 0h1M0 6h1m116 0h1M0 7h1m116 0h1M0 8h1m116 0h1M0 9h1m116 0h1M0 10h1m116 0h1M0 11h1m116 0h1M0 12h1m116 0h2M0 13h1m117 0h1M0 14h1m117 0h1M0 15h1m117 0h1M0 16h1m117 0h1M0 17h1m117 0h1M0 18h1m117 0h1M0 19h1m117 0h1M0 20h1m117 0h1M0 21h1m117 0h1M0 22h1m117 0h1M0 23h1m117 0h1M0 24h1m117 0h1M0 25h1m117 0h1M0 26h1m117 0h1M0 27h1m117 0h1M0 28h1m117 0h1M0 29h1m117 0h1M0 30h1m117 0h1M0 31h1m117 0h1M0 32h1m117 0h1M0 33h1m117 0h1M0 34h1m117 0h1M0 35h1m117 0h1M0 36h1m117 0h1M0 37h1m117 0h1M0 38h1m117 0h1M0 39h1m117 0h1M0 40h1m114 0h4M0 41h1m70 0h15m31 0h1M0 42h1m70 0h1m13 0h1m31 0h1M0 43h1m70 0h1m13 0h1m9 0h10m12 0h1M0 44h1m70 0h1m13 0h1m9 0h1m8 0h1m12 0h1M0 45h1m70 0h1m13 0h1m9 0h1m8 0h1m12 0h1M0 46h72m13 0h1m9 0h1m8 0h1m12 0h1m-33 1h1m9 0h1m8 0h1m12 0h1m-33 1h1m9 0h1m8 0h1m12 0h1m-33 1h1m9 0h1m8 0h1m12 0h1m-33 1h1m9 0h1m8 0h1m12 0h1m-33 1h1m9 0h1m8 0h1m12 0h1m-33 1h11m8 0h14"/><path stroke="#333" d="M1 1h116M1 2h1m114 0h1M1 3h1m114 0h1M1 4h1m114 0h1M1 5h1m114 0h1M1 6h1m114 0h1M1 7h1m114 0h1M1 8h1m114 0h1M1 9h1m86 0h3m25 0h1M1 10h1m86 0h3m4 0h22M1 11h1m86 0h3m4 0h22M1 12h1m93 0h22M1 13h1m113 0h3M1 14h1m113 0h3M1 15h1m114 0h2M1 16h1m115 0h1M1 17h1m115 0h1M1 18h1m115 0h1M1 19h1m115 0h1M1 20h1m115 0h1M1 21h1m115 0h1M1 22h1m115 0h1M1 23h1m115 0h1M1 24h1m115 0h1M1 25h1m115 0h1M1 26h1m115 0h1M1 27h1m115 0h1M1 28h1m115 0h1M1 29h1m115 0h1M1 30h1m115 0h1M1 31h1m115 0h1M1 32h1m115 0h1M1 33h1m115 0h1M1 34h1m115 0h1M1 35h1m115 0h1M1 36h1m115 0h1M1 37h1m115 0h1M1 38h1m115 0h1M1 39h1m112 0h4M1 40h1m68 0h17m27 0h1M1 41h1m68 0h1m15 0h1m27 0h3M1 42h1m68 0h1m15 0h1m7 0h12m10 0h1M1 43h1m68 0h1m15 0h1m7 0h1m10 0h1m10 0h1M1 44h1m68 0h1m15 0h1m7 0h1m10 0h1m10 0h1M1 45h70m15 0h1m7 0h1m10 0h1m10 0h1m-31 1h1m7 0h1m10 0h1m10 0h1m-31 1h1m7 0h1m10 0h1m10 0h1m-31 1h1m7 0h1m10 0h1m10 0h1m-31 1h1m7 0h1m10 0h1m10 0h1m-31 1h1m7 0h1m10 0h1m10 0h1m-31 1h9m10 0h12"/><path stroke="#7ac037" d="M2 2h114M2 3h114M2 4h114M2 5h114M2 6h114M2 7h114M2 8h114M2 9h86m3 0h25M2 10h86m3 0h4M2 11h86m3 0h4M2 12h93M2 13h113M2 14h113M2 15h114M2 16h115M2 17h115M2 18h115M2 19h115M2 20h115M2 21h115M2 22h115M2 23h115M2 24h115M2 25h115M2 26h115M2 27h115M2 28h115M2 29h115M2 30h115M2 31h115M2 32h115M2 33h115M2 34h115M2 35h115M2 36h115M2 37h115M2 38h115M2 39h112M2 40h68m17 0h27M2 41h68m17 0h27M2 42h68m17 0h7m12 0h10M2 43h68m17 0h7m12 0h10M2 44h68m17 0h7m12 0h10m-29 1h7m12 0h10m-29 1h7m12 0h10m-29 1h7m12 0h10m-29 1h7m12 0h10m-29 1h7m12 0h10m-29 1h7m12 0h10"/></svg>